<svg width="160" height="55" viewBox="0 0 160 55" fill="none" xmlns="http://www.w3.org/2000/svg">
<g clip-path="url(#clip0_30_3507)">
<g filter="url(#filter0_d_30_3507)">
<path d="M11.4725 3C6.88912 3 3.20001 7.01346 3.20001 11.9999V42.0401C3.20001 47.0265 6.88912 51.04 11.4725 51.04H148.528C153.111 51.04 156.8 47.0265 156.8 42.0401V11.9999C156.8 7.01346 153.111 3 148.528 3H11.4725Z" fill="white"/>
</g>
<path d="M42.4999 40.0001C49.3583 40.0001 55 34.3584 55 27.5C55 20.6416 49.3583 15 42.4999 15C35.6415 15 30 20.6416 30 27.5C30 34.469 35.5309 40.0001 42.4999 40.0001Z" stroke="#7F8080" stroke-width="0.83" stroke-linecap="round"/>
<path d="M49.5796 31.8142C47.5884 30.3761 45.0442 29.6018 42.3893 29.6018C39.6238 29.6018 37.1902 30.3761 35.199 31.8142" stroke="#7F8080" stroke-width="0.83" stroke-linecap="round"/>
<path d="M38.6282 25.6195C39.5132 25.6195 40.2875 24.8452 40.2875 23.9602C40.2875 23.0753 39.5132 22.3009 38.6282 22.3009C37.7433 22.3009 36.9689 22.9647 36.9689 23.9602C36.9689 24.9558 37.7433 25.6195 38.6282 25.6195Z" stroke="#7F8080" stroke-width="0.83" stroke-linecap="round"/>
<path d="M45.7079 25.6195C46.5929 25.6195 47.3672 24.8452 47.3672 23.9602C47.3672 23.0753 46.5929 22.3009 45.7079 22.3009C44.823 22.3009 44.0486 22.9647 44.0486 23.9602C44.0486 24.9558 44.823 25.6195 45.7079 25.6195Z" stroke="#7F8080" stroke-width="0.83" stroke-linecap="round"/>
<path d="M119.4 40.0001C126.258 40.0001 131.9 34.3584 131.9 27.5C131.9 20.6416 126.258 15 119.4 15C112.542 15 106.9 20.6416 106.9 27.5C106.9 34.469 112.542 40.0001 119.4 40.0001Z" stroke="#7F8080" stroke-width="0.83" stroke-linecap="round"/>
<path d="M112.21 29.6018C114.201 31.0399 116.745 31.8142 119.4 31.8142C122.165 31.8142 124.599 31.0399 126.59 29.6018" stroke="#7F8080" stroke-width="0.83" stroke-linecap="round"/>
<path d="M115.639 25.6195C116.524 25.6195 117.298 24.8452 117.298 23.9602C117.298 23.0753 116.524 22.3009 115.639 22.3009C114.754 22.3009 113.98 22.9647 113.98 23.9602C113.98 24.9558 114.754 25.6195 115.639 25.6195Z" stroke="#7F8080" stroke-width="0.83" stroke-linecap="round"/>
<path d="M122.719 25.6195C123.604 25.6195 124.378 24.8452 124.378 23.9602C124.378 23.0753 123.604 22.3009 122.719 22.3009C121.834 22.3009 121.059 22.9647 121.059 23.9602C121.059 24.9558 121.834 25.6195 122.719 25.6195Z" stroke="#7F8080" stroke-width="0.83" stroke-linecap="round"/>
<path d="M81 3V51" stroke="#BFBEBF" stroke-width="0.208"/>
</g>
<defs>
<filter id="filter0_d_30_3507" x="-1.79999" y="-2" width="163.6" height="58.04" filterUnits="userSpaceOnUse" color-interpolation-filters="sRGB">
<feFlood flood-opacity="0" result="BackgroundImageFix"/>
<feColorMatrix in="SourceAlpha" type="matrix" values="0 0 0 0 0 0 0 0 0 0 0 0 0 0 0 0 0 0 127 0" result="hardAlpha"/>
<feOffset/>
<feGaussianBlur stdDeviation="2.5"/>
<feComposite in2="hardAlpha" operator="out"/>
<feColorMatrix type="matrix" values="0 0 0 0 0 0 0 0 0 0 0 0 0 0 0 0 0 0 0.25 0"/>
<feBlend mode="normal" in2="BackgroundImageFix" result="effect1_dropShadow_30_3507"/>
<feBlend mode="normal" in="SourceGraphic" in2="effect1_dropShadow_30_3507" result="shape"/>
</filter>
<clipPath id="clip0_30_3507">
<rect width="160" height="55" fill="white"/>
</clipPath>
</defs>
</svg>
