<svg width="160" height="55" viewBox="0 0 160 55" fill="none" xmlns="http://www.w3.org/2000/svg">
<g clip-path="url(#clip0_30_3378)">
<g filter="url(#filter0_d_30_3378)">
<path d="M11.4725 3C6.88912 3 3.20001 7.01346 3.20001 11.9999V42.0401C3.20001 47.0265 6.88912 51.04 11.4725 51.04H148.528C153.111 51.04 156.8 47.0265 156.8 42.0401V11.9999C156.8 7.01346 153.111 3 148.528 3H11.4725Z" fill="white"/>
</g>
<path d="M78.2393 26.0228V27.6497C78.2393 28.429 78.1618 29.0944 78.0068 29.6458C77.8564 30.1927 77.6377 30.637 77.3506 30.9788C77.0635 31.3206 76.7194 31.5713 76.3184 31.7308C75.9219 31.8903 75.4775 31.97 74.9854 31.97C74.5934 31.97 74.2288 31.9199 73.8916 31.8197C73.5589 31.7194 73.2581 31.5622 72.9893 31.348C72.7204 31.1338 72.4902 30.8581 72.2988 30.5208C72.112 30.179 71.9661 29.7712 71.8613 29.2972C71.7611 28.8232 71.7109 28.2741 71.7109 27.6497V26.0228C71.7109 25.2389 71.7884 24.5781 71.9434 24.0404C72.0983 23.498 72.3193 23.0583 72.6064 22.721C72.8936 22.3792 73.2354 22.1309 73.6318 21.9759C74.0329 21.821 74.4795 21.7435 74.9717 21.7435C75.3682 21.7435 75.7327 21.7936 76.0654 21.8939C76.4027 21.9896 76.7035 22.1422 76.9678 22.3519C77.2367 22.5615 77.4645 22.835 77.6514 23.1722C77.8428 23.5049 77.9886 23.9082 78.0889 24.3822C78.1891 24.8516 78.2393 25.3984 78.2393 26.0228ZM76.5918 27.8822V25.7767C76.5918 25.3802 76.569 25.0316 76.5234 24.7308C76.4779 24.4255 76.4095 24.168 76.3184 23.9583C76.2318 23.7441 76.1224 23.571 75.9902 23.4388C75.8581 23.3021 75.7077 23.2041 75.5391 23.1449C75.3704 23.081 75.1813 23.0491 74.9717 23.0491C74.7165 23.0491 74.4886 23.0993 74.2881 23.1995C74.0876 23.2952 73.9189 23.4502 73.7822 23.6644C73.6455 23.8786 73.5407 24.1611 73.4678 24.512C73.3994 24.8584 73.3652 25.2799 73.3652 25.7767V27.8822C73.3652 28.2832 73.388 28.6364 73.4336 28.9417C73.4792 29.2471 73.5475 29.5091 73.6387 29.7279C73.7298 29.9421 73.8392 30.1198 73.9668 30.2611C74.099 30.3978 74.2493 30.498 74.418 30.5618C74.5911 30.6256 74.7803 30.6575 74.9854 30.6575C75.2451 30.6575 75.4753 30.6074 75.6758 30.5072C75.8763 30.4069 76.0449 30.2474 76.1816 30.0286C76.3184 29.8053 76.4209 29.5159 76.4893 29.1605C76.5576 28.805 76.5918 28.3789 76.5918 27.8822ZM81.4385 27.2054L80.126 26.8841L80.666 21.8802H86.0322V23.2747H82.0332L81.7598 25.7152C81.9147 25.624 82.1289 25.5352 82.4023 25.4486C82.6758 25.3574 82.988 25.3118 83.3389 25.3118C83.8083 25.3118 84.2275 25.3893 84.5967 25.5443C84.9704 25.6947 85.2871 25.9157 85.5469 26.2074C85.8066 26.4945 86.0049 26.8454 86.1416 27.2601C86.2783 27.6702 86.3467 28.1328 86.3467 28.6478C86.3467 29.1081 86.2783 29.5387 86.1416 29.9398C86.0094 30.3408 85.8089 30.694 85.54 30.9993C85.2712 31.3047 84.9316 31.5439 84.5215 31.7171C84.1159 31.8857 83.6351 31.97 83.0791 31.97C82.6644 31.97 82.2656 31.9108 81.8828 31.7923C81.5046 31.6693 81.165 31.4893 80.8643 31.2523C80.5635 31.0107 80.3219 30.7145 80.1396 30.3636C79.9574 30.0081 79.8525 29.6003 79.8252 29.14H81.4385C81.4795 29.4635 81.5684 29.7393 81.7051 29.9671C81.8464 30.1904 82.0332 30.3613 82.2656 30.4798C82.498 30.5983 82.7669 30.6575 83.0723 30.6575C83.3503 30.6575 83.5895 30.6097 83.79 30.514C83.9906 30.4137 84.1569 30.2725 84.2891 30.0902C84.4258 29.9033 84.526 29.6846 84.5898 29.4339C84.6582 29.1833 84.6924 28.9053 84.6924 28.5999C84.6924 28.3083 84.6536 28.0417 84.5762 27.8001C84.5033 27.5586 84.3916 27.349 84.2412 27.1712C84.0954 26.9935 83.9108 26.8568 83.6875 26.7611C83.4642 26.6608 83.2067 26.6107 82.915 26.6107C82.5231 26.6107 82.2223 26.6676 82.0127 26.7816C81.8076 26.8955 81.6162 27.0368 81.4385 27.2054Z" fill="#010202"/>
<path opacity="0.4" d="M78.8538 15.7646V16.8105C78.8538 17.3115 78.804 17.7393 78.7044 18.0938C78.6077 18.4453 78.4671 18.731 78.2825 18.9507C78.098 19.1704 77.8768 19.3315 77.619 19.4341C77.3641 19.5366 77.0784 19.5879 76.762 19.5879C76.5101 19.5879 76.2757 19.5557 76.0589 19.4912C75.845 19.4268 75.6517 19.3257 75.4788 19.188C75.306 19.0503 75.158 18.873 75.035 18.6562C74.9149 18.4365 74.8211 18.1743 74.7537 17.8696C74.6893 17.5649 74.657 17.2119 74.657 16.8105V15.7646C74.657 15.2607 74.7068 14.8359 74.8065 14.4902C74.9061 14.1416 75.0482 13.8589 75.2327 13.6421C75.4173 13.4224 75.637 13.2627 75.8919 13.1631C76.1497 13.0635 76.4368 13.0137 76.7532 13.0137C77.0081 13.0137 77.2425 13.0459 77.4564 13.1104C77.6732 13.1719 77.8665 13.27 78.0364 13.4048C78.2093 13.5396 78.3558 13.7153 78.4759 13.9321C78.5989 14.146 78.6927 14.4053 78.7571 14.71C78.8216 15.0117 78.8538 15.3633 78.8538 15.7646ZM77.7947 16.96V15.6064C77.7947 15.3516 77.7801 15.1274 77.7508 14.9341C77.7215 14.7378 77.6776 14.5723 77.619 14.4375C77.5633 14.2998 77.493 14.1885 77.408 14.1035C77.3231 14.0156 77.2264 13.9526 77.118 13.9146C77.0096 13.8735 76.888 13.853 76.7532 13.853C76.5892 13.853 76.4427 13.8853 76.3138 13.9497C76.1849 14.0112 76.0765 14.1108 75.9886 14.2485C75.9007 14.3862 75.8333 14.5679 75.7864 14.7935C75.7425 15.0161 75.7205 15.2871 75.7205 15.6064V16.96C75.7205 17.2178 75.7352 17.4448 75.7645 17.6411C75.7938 17.8374 75.8377 18.0059 75.8963 18.1465C75.9549 18.2842 76.0252 18.3984 76.1072 18.4893C76.1922 18.5771 76.2889 18.6416 76.3973 18.6826C76.5086 18.7236 76.6302 18.7441 76.762 18.7441C76.929 18.7441 77.077 18.7119 77.2059 18.6475C77.3348 18.583 77.4432 18.4805 77.5311 18.3398C77.619 18.1963 77.6849 18.0103 77.7288 17.7817C77.7728 17.5532 77.7947 17.2793 77.7947 16.96ZM84.2064 17.2192V18.063H79.5921L79.5569 17.4258L82.3167 13.1016H83.1649L82.2464 14.6748L80.66 17.2192H84.2064ZM83.4066 13.1016V19.5H82.3475V13.1016H83.4066Z" fill="#010202"/>
<path opacity="0.1" d="M78.8043 7.11523V7.87402C78.8043 8.2819 78.7678 8.62598 78.6949 8.90625C78.622 9.18652 78.5172 9.41211 78.3804 9.58301C78.2437 9.75391 78.0785 9.87809 77.8848 9.95557C77.6934 10.0308 77.4769 10.0684 77.2354 10.0684C77.044 10.0684 76.8674 10.0444 76.7056 9.99658C76.5438 9.94873 76.398 9.8724 76.2681 9.76758C76.1405 9.66048 76.0311 9.52148 75.94 9.35059C75.8489 9.17969 75.7794 8.97233 75.7315 8.72852C75.6837 8.4847 75.6597 8.19987 75.6597 7.87402V7.11523C75.6597 6.70736 75.6962 6.36556 75.7691 6.08984C75.8443 5.81413 75.9503 5.5931 76.087 5.42676C76.2237 5.25814 76.3878 5.13737 76.5792 5.06445C76.7728 4.99154 76.9893 4.95508 77.2286 4.95508C77.4223 4.95508 77.6 4.979 77.7618 5.02686C77.9258 5.07243 78.0717 5.14648 78.1993 5.24902C78.3269 5.34928 78.4351 5.48372 78.524 5.65234C78.6151 5.81868 78.6846 6.02262 78.7325 6.26416C78.7803 6.5057 78.8043 6.78939 78.8043 7.11523ZM78.1685 7.97656V7.00928C78.1685 6.78597 78.1548 6.59001 78.1275 6.42139C78.1024 6.25049 78.0648 6.10465 78.0147 5.98389C77.9646 5.86312 77.9008 5.76514 77.8233 5.68994C77.7481 5.61475 77.6604 5.56006 77.5601 5.52588C77.4621 5.48942 77.3516 5.47119 77.2286 5.47119C77.0782 5.47119 76.9449 5.49967 76.8287 5.55664C76.7125 5.61133 76.6145 5.69906 76.5347 5.81982C76.4573 5.94059 76.398 6.09896 76.357 6.29492C76.316 6.49089 76.2955 6.729 76.2955 7.00928V7.97656C76.2955 8.19987 76.308 8.39697 76.3331 8.56787C76.3604 8.73877 76.4003 8.88688 76.4527 9.01221C76.5051 9.13525 76.5689 9.23665 76.6441 9.31641C76.7193 9.39616 76.8059 9.4554 76.9039 9.49414C77.0041 9.5306 77.1146 9.54883 77.2354 9.54883C77.3904 9.54883 77.5259 9.51921 77.6422 9.45996C77.7584 9.40072 77.8552 9.30843 77.9327 9.18311C78.0124 9.0555 78.0717 8.89258 78.1104 8.69434C78.1491 8.49382 78.1685 8.25456 78.1685 7.97656ZM80.5406 7.20068H80.9918C81.2128 7.20068 81.3951 7.16423 81.5386 7.09131C81.6845 7.01611 81.7927 6.91471 81.8633 6.78711C81.9363 6.65723 81.9727 6.51139 81.9727 6.34961C81.9727 6.1582 81.9408 5.99756 81.877 5.86768C81.8132 5.73779 81.7175 5.63981 81.5899 5.57373C81.4623 5.50765 81.3005 5.47461 81.1046 5.47461C80.9268 5.47461 80.7696 5.50993 80.6329 5.58057C80.4984 5.64893 80.3925 5.74691 80.315 5.87451C80.2398 6.00212 80.2022 6.15251 80.2022 6.32568H79.5699C79.5699 6.07275 79.6337 5.84261 79.7613 5.63525C79.8889 5.4279 80.0678 5.2627 80.2979 5.13965C80.5303 5.0166 80.7992 4.95508 81.1046 4.95508C81.4053 4.95508 81.6685 5.00863 81.8941 5.11572C82.1197 5.22054 82.2951 5.37777 82.4205 5.5874C82.5458 5.79476 82.6085 6.05339 82.6085 6.36328C82.6085 6.48861 82.5788 6.62305 82.5196 6.7666C82.4626 6.90788 82.3726 7.04004 82.2496 7.16309C82.1288 7.28613 81.9716 7.38753 81.7779 7.46729C81.5842 7.54476 81.3518 7.5835 81.0806 7.5835H80.5406V7.20068ZM80.5406 7.72021V7.34082H81.0806C81.3974 7.34082 81.6594 7.37842 81.8668 7.45361C82.0741 7.52881 82.237 7.62907 82.3555 7.75439C82.4763 7.87972 82.5606 8.01758 82.6085 8.16797C82.6586 8.31608 82.6837 8.46419 82.6837 8.6123C82.6837 8.84473 82.6438 9.05094 82.564 9.23096C82.4866 9.41097 82.376 9.56364 82.2325 9.68896C82.0912 9.81429 81.9249 9.90885 81.7335 9.97266C81.5421 10.0365 81.3336 10.0684 81.108 10.0684C80.8915 10.0684 80.6876 10.0376 80.4962 9.97607C80.307 9.91455 80.1395 9.82568 79.9937 9.70947C79.8479 9.59098 79.7339 9.44629 79.6519 9.27539C79.5699 9.10221 79.5289 8.90511 79.5289 8.68408H80.1612C80.1612 8.85726 80.1988 9.00879 80.274 9.13867C80.3515 9.26855 80.4608 9.36995 80.6021 9.44287C80.7457 9.51351 80.9143 9.54883 81.108 9.54883C81.3017 9.54883 81.468 9.51579 81.607 9.44971C81.7483 9.38135 81.8565 9.27881 81.9317 9.14209C82.0092 9.00537 82.0479 8.83333 82.0479 8.62598C82.0479 8.41862 82.0046 8.24886 81.918 8.1167C81.8314 7.98226 81.7084 7.88314 81.5489 7.81934C81.3917 7.75326 81.206 7.72021 80.9918 7.72021H80.5406Z" fill="#010202"/>
<path opacity="0.4" d="M78.8538 37.9313V38.9772C78.8538 39.4782 78.804 39.9059 78.7044 40.2604C78.6077 40.612 78.4671 40.8976 78.2825 41.1173C78.098 41.3371 77.8768 41.4982 77.619 41.6007C77.3641 41.7033 77.0784 41.7545 76.762 41.7545C76.5101 41.7545 76.2757 41.7223 76.0589 41.6579C75.845 41.5934 75.6517 41.4923 75.4788 41.3546C75.306 41.2169 75.158 41.0397 75.035 40.8229C74.9149 40.6032 74.8211 40.341 74.7537 40.0363C74.6893 39.7316 74.657 39.3786 74.657 38.9772V37.9313C74.657 37.4274 74.7068 37.0026 74.8065 36.6569C74.9061 36.3083 75.0482 36.0255 75.2327 35.8087C75.4173 35.589 75.637 35.4294 75.8919 35.3297C76.1497 35.2301 76.4368 35.1803 76.7532 35.1803C77.0081 35.1803 77.2425 35.2126 77.4564 35.277C77.6732 35.3385 77.8665 35.4367 78.0364 35.5714C78.2093 35.7062 78.3558 35.882 78.4759 36.0988C78.5989 36.3127 78.6927 36.5719 78.7571 36.8766C78.8216 37.1784 78.8538 37.5299 78.8538 37.9313ZM77.7947 39.1266V37.7731C77.7947 37.5182 77.7801 37.2941 77.7508 37.1007C77.7215 36.9044 77.6776 36.7389 77.619 36.6042C77.5633 36.4665 77.493 36.3551 77.408 36.2702C77.3231 36.1823 77.2264 36.1193 77.118 36.0812C77.0096 36.0402 76.888 36.0197 76.7532 36.0197C76.5892 36.0197 76.4427 36.0519 76.3138 36.1164C76.1849 36.1779 76.0765 36.2775 75.9886 36.4152C75.9007 36.5529 75.8333 36.7345 75.7864 36.9601C75.7425 37.1828 75.7205 37.4538 75.7205 37.7731V39.1266C75.7205 39.3844 75.7352 39.6115 75.7645 39.8078C75.7938 40.0041 75.8377 40.1725 75.8963 40.3131C75.9549 40.4508 76.0252 40.5651 76.1072 40.6559C76.1922 40.7438 76.2889 40.8083 76.3973 40.8493C76.5086 40.8903 76.6302 40.9108 76.762 40.9108C76.929 40.9108 77.077 40.8786 77.2059 40.8141C77.3348 40.7497 77.4432 40.6471 77.5311 40.5065C77.619 40.3629 77.6849 40.1769 77.7288 39.9484C77.7728 39.7199 77.7947 39.446 77.7947 39.1266ZM82.9979 35.2287H83.1297V36.0944H83.055C82.6771 36.0944 82.3504 36.153 82.075 36.2702C81.8026 36.3874 81.5784 36.5485 81.4026 36.7536C81.2269 36.9586 81.095 37.1989 81.0071 37.4743C80.9222 37.7467 80.8797 38.0368 80.8797 38.3444V39.3507C80.8797 39.6056 80.9075 39.8312 80.9632 40.0275C81.0189 40.2209 81.0965 40.3835 81.1961 40.5153C81.2986 40.6442 81.4158 40.7423 81.5477 40.8097C81.6795 40.8771 81.8216 40.9108 81.9739 40.9108C82.1321 40.9108 82.2757 40.8786 82.4046 40.8141C82.5335 40.7467 82.6434 40.6544 82.7342 40.5373C82.825 40.4201 82.8939 40.2809 82.9407 40.1198C82.9876 39.9586 83.011 39.7829 83.011 39.5924C83.011 39.4108 82.9876 39.2409 82.9407 39.0827C82.8968 38.9215 82.8309 38.7809 82.743 38.6608C82.6551 38.5378 82.5452 38.4425 82.4134 38.3752C82.2845 38.3048 82.1351 38.2697 81.9651 38.2697C81.7542 38.2697 81.5623 38.3195 81.3895 38.4191C81.2195 38.5187 81.0818 38.6491 80.9764 38.8102C80.8738 38.9684 80.8182 39.1369 80.8094 39.3156L80.4051 39.1837C80.4285 38.9113 80.4886 38.6667 80.5853 38.4499C80.6849 38.2331 80.8152 38.0485 80.9764 37.8961C81.1375 37.7438 81.3235 37.6281 81.5345 37.549C81.7484 37.4669 81.9827 37.4259 82.2376 37.4259C82.5482 37.4259 82.8177 37.4845 83.0462 37.6017C83.2747 37.7189 83.4637 37.8786 83.6131 38.0807C83.7654 38.2799 83.8782 38.5085 83.9515 38.7663C84.0276 39.0211 84.0657 39.2878 84.0657 39.5661C84.0657 39.8737 84.0189 40.1608 83.9251 40.4274C83.8314 40.6911 83.6937 40.9225 83.512 41.1217C83.3333 41.321 83.1151 41.4762 82.8572 41.5876C82.6024 41.6989 82.3123 41.7545 81.9871 41.7545C81.6443 41.7545 81.3382 41.6886 81.0687 41.5568C80.8021 41.425 80.575 41.2433 80.3875 41.0119C80.2029 40.7804 80.0623 40.5138 79.9656 40.2121C79.869 39.9103 79.8206 39.591 79.8206 39.2541V38.8146C79.8206 38.3283 79.8821 37.8698 80.0052 37.4391C80.1282 37.0055 80.3172 36.6232 80.5721 36.2921C80.8299 35.9611 81.1595 35.7018 81.5609 35.5143C81.9622 35.3239 82.4412 35.2287 82.9979 35.2287Z" fill="#010202"/>
<path opacity="0.1" d="M78.8043 46.8652V47.624C78.8043 48.0319 78.7678 48.376 78.6949 48.6562C78.622 48.9365 78.5172 49.1621 78.3804 49.333C78.2437 49.5039 78.0785 49.6281 77.8848 49.7056C77.6934 49.7808 77.4769 49.8184 77.2354 49.8184C77.044 49.8184 76.8674 49.7944 76.7056 49.7466C76.5438 49.6987 76.398 49.6224 76.2681 49.5176C76.1405 49.4105 76.0311 49.2715 75.94 49.1006C75.8489 48.9297 75.7794 48.7223 75.7315 48.4785C75.6837 48.2347 75.6597 47.9499 75.6597 47.624V46.8652C75.6597 46.4574 75.6962 46.1156 75.7691 45.8398C75.8443 45.5641 75.9503 45.3431 76.087 45.1768C76.2237 45.0081 76.3878 44.8874 76.5792 44.8145C76.7728 44.7415 76.9893 44.7051 77.2286 44.7051C77.4223 44.7051 77.6 44.729 77.7618 44.7769C77.9258 44.8224 78.0717 44.8965 78.1993 44.999C78.3269 45.0993 78.4351 45.2337 78.524 45.4023C78.6151 45.5687 78.6846 45.7726 78.7325 46.0142C78.7803 46.2557 78.8043 46.5394 78.8043 46.8652ZM78.1685 47.7266V46.7593C78.1685 46.536 78.1548 46.34 78.1275 46.1714C78.1024 46.0005 78.0648 45.8547 78.0147 45.7339C77.9646 45.6131 77.9008 45.5151 77.8233 45.4399C77.7481 45.3647 77.6604 45.3101 77.5601 45.2759C77.4621 45.2394 77.3516 45.2212 77.2286 45.2212C77.0782 45.2212 76.9449 45.2497 76.8287 45.3066C76.7125 45.3613 76.6145 45.4491 76.5347 45.5698C76.4573 45.6906 76.398 45.849 76.357 46.0449C76.316 46.2409 76.2955 46.479 76.2955 46.7593V47.7266C76.2955 47.9499 76.308 48.147 76.3331 48.3179C76.3604 48.4888 76.4003 48.6369 76.4527 48.7622C76.5051 48.8853 76.5689 48.9867 76.6441 49.0664C76.7193 49.1462 76.8059 49.2054 76.9039 49.2441C77.0041 49.2806 77.1146 49.2988 77.2354 49.2988C77.3904 49.2988 77.5259 49.2692 77.6422 49.21C77.7584 49.1507 77.8552 49.0584 77.9327 48.9331C78.0124 48.8055 78.0717 48.6426 78.1104 48.4443C78.1491 48.2438 78.1685 48.0046 78.1685 47.7266ZM82.834 44.7734V45.1289L80.773 49.75H80.1065L82.1641 45.293H79.4708V44.7734H82.834Z" fill="#010202"/>
<path d="M53 3L53 51" stroke="#BFBEBF" stroke-width="0.206"/>
<path d="M106 3L106 51" stroke="#BFBEBF" stroke-width="0.206"/>
<path d="M133.243 21.8824V34.1177" stroke="#7F8080" stroke-width="0.829" stroke-linecap="round"/>
<path d="M139.361 28H127.243" stroke="#7F8080" stroke-width="0.829" stroke-linecap="round"/>
<path d="M133.243 38C138.772 38 143.243 33.5294 143.243 28C143.243 22.4706 138.772 18 133.243 18C127.714 18 123.243 22.4706 123.243 28C123.243 33.5294 127.714 38 133.243 38Z" stroke="#7F8080" stroke-width="0.829" stroke-linecap="round"/>
<path d="M34.3607 28H22.243" stroke="#7F8080" stroke-width="0.829" stroke-linecap="round"/>
<path d="M28.243 38C33.7724 38 38.243 33.5294 38.243 28C38.243 22.4706 33.7724 18 28.243 18C22.7136 18 18.243 22.4706 18.243 28C18.243 33.5294 22.7136 38 28.243 38Z" stroke="#7F8080" stroke-width="0.829" stroke-linecap="round"/>
</g>
<defs>
<filter id="filter0_d_30_3378" x="-1.79999" y="-2" width="163.6" height="58.04" filterUnits="userSpaceOnUse" color-interpolation-filters="sRGB">
<feFlood flood-opacity="0" result="BackgroundImageFix"/>
<feColorMatrix in="SourceAlpha" type="matrix" values="0 0 0 0 0 0 0 0 0 0 0 0 0 0 0 0 0 0 127 0" result="hardAlpha"/>
<feOffset/>
<feGaussianBlur stdDeviation="2.5"/>
<feComposite in2="hardAlpha" operator="out"/>
<feColorMatrix type="matrix" values="0 0 0 0 0 0 0 0 0 0 0 0 0 0 0 0 0 0 0.25 0"/>
<feBlend mode="normal" in2="BackgroundImageFix" result="effect1_dropShadow_30_3378"/>
<feBlend mode="normal" in="SourceGraphic" in2="effect1_dropShadow_30_3378" result="shape"/>
</filter>
<clipPath id="clip0_30_3378">
<rect width="160" height="55" fill="white"/>
</clipPath>
</defs>
</svg>
