<svg width="160" height="55" viewBox="0 0 160 55" fill="none" xmlns="http://www.w3.org/2000/svg">
<g clip-path="url(#clip0_30_3256)">
<g filter="url(#filter0_d_30_3256)">
<path d="M11.4725 3C6.88912 3 3.20001 7.01346 3.20001 11.9999V42.0401C3.20001 47.0265 6.88912 51.04 11.4725 51.04H148.528C153.111 51.04 156.8 47.0265 156.8 42.0401V11.9999C156.8 7.01346 153.111 3 148.528 3H11.4725Z" fill="white"/>
</g>
<path d="M25.2393 26.0228V27.6497C25.2393 28.429 25.1618 29.0944 25.0068 29.6458C24.8564 30.1927 24.6377 30.637 24.3506 30.9788C24.0635 31.3206 23.7194 31.5713 23.3184 31.7308C22.9219 31.8903 22.4775 31.9701 21.9854 31.9701C21.5934 31.9701 21.2288 31.9199 20.8916 31.8197C20.5589 31.7194 20.2581 31.5622 19.9893 31.348C19.7204 31.1338 19.4902 30.8581 19.2988 30.5208C19.112 30.179 18.9661 29.7712 18.8613 29.2972C18.7611 28.8232 18.7109 28.2741 18.7109 27.6497V26.0228C18.7109 25.2389 18.7884 24.5781 18.9434 24.0404C19.0983 23.498 19.3193 23.0583 19.6064 22.721C19.8936 22.3792 20.2354 22.1309 20.6318 21.9759C21.0329 21.821 21.4795 21.7435 21.9717 21.7435C22.3682 21.7435 22.7327 21.7936 23.0654 21.8939C23.4027 21.9896 23.7035 22.1423 23.9678 22.3519C24.2367 22.5615 24.4645 22.835 24.6514 23.1722C24.8428 23.5049 24.9886 23.9082 25.0889 24.3822C25.1891 24.8516 25.2393 25.3984 25.2393 26.0228ZM23.5918 27.8822V25.7767C23.5918 25.3802 23.569 25.0316 23.5234 24.7308C23.4779 24.4255 23.4095 24.168 23.3184 23.9583C23.2318 23.7441 23.1224 23.571 22.9902 23.4388C22.8581 23.3021 22.7077 23.2041 22.5391 23.1449C22.3704 23.0811 22.1813 23.0492 21.9717 23.0492C21.7165 23.0492 21.4886 23.0993 21.2881 23.1995C21.0876 23.2952 20.9189 23.4502 20.7822 23.6644C20.6455 23.8786 20.5407 24.1611 20.4678 24.512C20.3994 24.8584 20.3652 25.2799 20.3652 25.7767V27.8822C20.3652 28.2832 20.388 28.6364 20.4336 28.9417C20.4792 29.2471 20.5475 29.5091 20.6387 29.7279C20.7298 29.9421 20.8392 30.1198 20.9668 30.2611C21.099 30.3978 21.2493 30.498 21.418 30.5618C21.5911 30.6256 21.7803 30.6576 21.9854 30.6576C22.2451 30.6576 22.4753 30.6074 22.6758 30.5072C22.8763 30.4069 23.0449 30.2474 23.1816 30.0286C23.3184 29.8053 23.4209 29.5159 23.4893 29.1605C23.5576 28.805 23.5918 28.3789 23.5918 27.8822ZM28.4385 27.2054L27.126 26.8841L27.666 21.8802H33.0322V23.2747H29.0332L28.7598 25.7152C28.9147 25.624 29.1289 25.5352 29.4023 25.4486C29.6758 25.3574 29.988 25.3118 30.3389 25.3118C30.8083 25.3118 31.2275 25.3893 31.5967 25.5443C31.9704 25.6947 32.2871 25.9157 32.5469 26.2074C32.8066 26.4945 33.0049 26.8454 33.1416 27.2601C33.2783 27.6702 33.3467 28.1328 33.3467 28.6478C33.3467 29.1081 33.2783 29.5387 33.1416 29.9398C33.0094 30.3408 32.8089 30.694 32.54 30.9993C32.2712 31.3047 31.9316 31.5439 31.5215 31.7171C31.1159 31.8857 30.6351 31.9701 30.0791 31.9701C29.6644 31.9701 29.2656 31.9108 28.8828 31.7923C28.5046 31.6693 28.165 31.4893 27.8643 31.2523C27.5635 31.0107 27.3219 30.7145 27.1396 30.3636C26.9574 30.0081 26.8525 29.6003 26.8252 29.14H28.4385C28.4795 29.4635 28.5684 29.7393 28.7051 29.9671C28.8464 30.1904 29.0332 30.3613 29.2656 30.4798C29.498 30.5983 29.7669 30.6576 30.0723 30.6576C30.3503 30.6576 30.5895 30.6097 30.79 30.514C30.9906 30.4137 31.1569 30.2725 31.2891 30.0902C31.4258 29.9033 31.526 29.6846 31.5898 29.4339C31.6582 29.1833 31.6924 28.9053 31.6924 28.5999C31.6924 28.3083 31.6536 28.0417 31.5762 27.8001C31.5033 27.5586 31.3916 27.349 31.2412 27.1712C31.0954 26.9935 30.9108 26.8568 30.6875 26.7611C30.4642 26.6608 30.2067 26.6107 29.915 26.6107C29.5231 26.6107 29.2223 26.6676 29.0127 26.7816C28.8076 26.8955 28.6162 27.0368 28.4385 27.2054Z" fill="#010202"/>
<path opacity="0.4" d="M25.8538 15.7646V16.8105C25.8538 17.3115 25.804 17.7393 25.7044 18.0938C25.6077 18.4453 25.4671 18.731 25.2825 18.9507C25.098 19.1704 24.8768 19.3315 24.619 19.4341C24.3641 19.5366 24.0784 19.5879 23.762 19.5879C23.5101 19.5879 23.2757 19.5557 23.0589 19.4912C22.845 19.4268 22.6517 19.3257 22.4788 19.188C22.306 19.0503 22.158 18.873 22.035 18.6562C21.9149 18.4365 21.8211 18.1743 21.7537 17.8696C21.6893 17.5649 21.657 17.2119 21.657 16.8105V15.7646C21.657 15.2607 21.7068 14.8359 21.8065 14.4902C21.9061 14.1416 22.0482 13.8589 22.2327 13.6421C22.4173 13.4224 22.637 13.2627 22.8919 13.1631C23.1497 13.0635 23.4368 13.0137 23.7532 13.0137C24.0081 13.0137 24.2425 13.0459 24.4564 13.1104C24.6732 13.1719 24.8665 13.27 25.0364 13.4048C25.2093 13.5396 25.3558 13.7153 25.4759 13.9321C25.5989 14.146 25.6927 14.4053 25.7571 14.71C25.8216 15.0117 25.8538 15.3633 25.8538 15.7646ZM24.7947 16.96V15.6064C24.7947 15.3516 24.7801 15.1274 24.7508 14.9341C24.7215 14.7378 24.6776 14.5723 24.619 14.4375C24.5633 14.2998 24.493 14.1885 24.408 14.1035C24.3231 14.0156 24.2264 13.9526 24.118 13.9146C24.0096 13.8735 23.888 13.853 23.7532 13.853C23.5892 13.853 23.4427 13.8853 23.3138 13.9497C23.1849 14.0112 23.0765 14.1108 22.9886 14.2485C22.9007 14.3862 22.8333 14.5679 22.7864 14.7935C22.7425 15.0161 22.7205 15.2871 22.7205 15.6064V16.96C22.7205 17.2178 22.7352 17.4448 22.7645 17.6411C22.7938 17.8374 22.8377 18.0059 22.8963 18.1465C22.9549 18.2842 23.0252 18.3984 23.1072 18.4893C23.1922 18.5771 23.2889 18.6416 23.3973 18.6826C23.5086 18.7236 23.6302 18.7441 23.762 18.7441C23.929 18.7441 24.077 18.7119 24.2059 18.6475C24.3348 18.583 24.4432 18.4805 24.5311 18.3398C24.619 18.1963 24.6849 18.0103 24.7288 17.7817C24.7728 17.5532 24.7947 17.2793 24.7947 16.96ZM31.2064 17.2192V18.063H26.5921L26.5569 17.4258L29.3167 13.1016H30.1649L29.2464 14.6748L27.66 17.2192H31.2064ZM30.4066 13.1016V19.5H29.3475V13.1016H30.4066Z" fill="#010202"/>
<path opacity="0.1" d="M25.8043 7.11523V7.87402C25.8043 8.2819 25.7678 8.62598 25.6949 8.90625C25.622 9.18652 25.5172 9.41211 25.3804 9.58301C25.2437 9.75391 25.0785 9.87809 24.8848 9.95557C24.6934 10.0308 24.4769 10.0684 24.2354 10.0684C24.044 10.0684 23.8674 10.0444 23.7056 9.99658C23.5438 9.94873 23.398 9.8724 23.2681 9.76758C23.1405 9.66048 23.0311 9.52148 22.94 9.35059C22.8489 9.17969 22.7794 8.97233 22.7315 8.72852C22.6837 8.4847 22.6597 8.19987 22.6597 7.87402V7.11523C22.6597 6.70736 22.6962 6.36556 22.7691 6.08984C22.8443 5.81413 22.9503 5.5931 23.087 5.42676C23.2237 5.25814 23.3878 5.13737 23.5792 5.06445C23.7728 4.99154 23.9893 4.95508 24.2286 4.95508C24.4223 4.95508 24.6 4.979 24.7618 5.02686C24.9258 5.07243 25.0717 5.14648 25.1993 5.24902C25.3269 5.34928 25.4351 5.48372 25.524 5.65234C25.6151 5.81868 25.6846 6.02262 25.7325 6.26416C25.7803 6.5057 25.8043 6.78939 25.8043 7.11523ZM25.1685 7.97656V7.00928C25.1685 6.78597 25.1548 6.59001 25.1275 6.42139C25.1024 6.25049 25.0648 6.10465 25.0147 5.98389C24.9646 5.86312 24.9008 5.76514 24.8233 5.68994C24.7481 5.61475 24.6604 5.56006 24.5601 5.52588C24.4621 5.48942 24.3516 5.47119 24.2286 5.47119C24.0782 5.47119 23.9449 5.49967 23.8287 5.55664C23.7125 5.61133 23.6145 5.69906 23.5347 5.81982C23.4573 5.94059 23.398 6.09896 23.357 6.29492C23.316 6.49089 23.2955 6.729 23.2955 7.00928V7.97656C23.2955 8.19987 23.308 8.39697 23.3331 8.56787C23.3604 8.73877 23.4003 8.88688 23.4527 9.01221C23.5051 9.13525 23.5689 9.23665 23.6441 9.31641C23.7193 9.39616 23.8059 9.4554 23.9039 9.49414C24.0041 9.5306 24.1146 9.54883 24.2354 9.54883C24.3904 9.54883 24.5259 9.51921 24.6422 9.45996C24.7584 9.40072 24.8552 9.30843 24.9327 9.18311C25.0124 9.0555 25.0717 8.89258 25.1104 8.69434C25.1491 8.49382 25.1685 8.25456 25.1685 7.97656ZM27.5406 7.20068H27.9918C28.2128 7.20068 28.3951 7.16423 28.5386 7.09131C28.6845 7.01611 28.7927 6.91471 28.8633 6.78711C28.9363 6.65723 28.9727 6.51139 28.9727 6.34961C28.9727 6.1582 28.9408 5.99756 28.877 5.86768C28.8132 5.73779 28.7175 5.63981 28.5899 5.57373C28.4623 5.50765 28.3005 5.47461 28.1046 5.47461C27.9268 5.47461 27.7696 5.50993 27.6329 5.58057C27.4984 5.64893 27.3925 5.74691 27.315 5.87451C27.2398 6.00212 27.2022 6.15251 27.2022 6.32568H26.5699C26.5699 6.07275 26.6337 5.84261 26.7613 5.63525C26.8889 5.4279 27.0678 5.2627 27.2979 5.13965C27.5303 5.0166 27.7992 4.95508 28.1046 4.95508C28.4053 4.95508 28.6685 5.00863 28.8941 5.11572C29.1197 5.22054 29.2951 5.37777 29.4205 5.5874C29.5458 5.79476 29.6085 6.05339 29.6085 6.36328C29.6085 6.48861 29.5788 6.62305 29.5196 6.7666C29.4626 6.90788 29.3726 7.04004 29.2496 7.16309C29.1288 7.28613 28.9716 7.38753 28.7779 7.46729C28.5842 7.54476 28.3518 7.5835 28.0806 7.5835H27.5406V7.20068ZM27.5406 7.72021V7.34082H28.0806C28.3974 7.34082 28.6594 7.37842 28.8668 7.45361C29.0741 7.52881 29.237 7.62907 29.3555 7.75439C29.4763 7.87972 29.5606 8.01758 29.6085 8.16797C29.6586 8.31608 29.6837 8.46419 29.6837 8.6123C29.6837 8.84473 29.6438 9.05094 29.564 9.23096C29.4866 9.41097 29.376 9.56364 29.2325 9.68896C29.0912 9.81429 28.9249 9.90885 28.7335 9.97266C28.5421 10.0365 28.3336 10.0684 28.108 10.0684C27.8915 10.0684 27.6876 10.0376 27.4962 9.97607C27.307 9.91455 27.1395 9.82568 26.9937 9.70947C26.8479 9.59098 26.7339 9.44629 26.6519 9.27539C26.5699 9.10221 26.5289 8.90511 26.5289 8.68408H27.1612C27.1612 8.85726 27.1988 9.00879 27.274 9.13867C27.3515 9.26855 27.4608 9.36995 27.6021 9.44287C27.7457 9.51351 27.9143 9.54883 28.108 9.54883C28.3017 9.54883 28.468 9.51579 28.607 9.44971C28.7483 9.38135 28.8565 9.27881 28.9317 9.14209C29.0092 9.00537 29.0479 8.83333 29.0479 8.62598C29.0479 8.41862 29.0046 8.24886 28.918 8.1167C28.8314 7.98226 28.7084 7.88314 28.5489 7.81934C28.3917 7.75326 28.206 7.72021 27.9918 7.72021H27.5406Z" fill="#010202"/>
<path opacity="0.4" d="M25.8538 37.9313V38.9772C25.8538 39.4782 25.804 39.9059 25.7044 40.2604C25.6077 40.612 25.4671 40.8976 25.2825 41.1173C25.098 41.3371 24.8768 41.4982 24.619 41.6007C24.3641 41.7033 24.0784 41.7546 23.762 41.7546C23.5101 41.7546 23.2757 41.7223 23.0589 41.6579C22.845 41.5934 22.6517 41.4923 22.4788 41.3547C22.306 41.217 22.158 41.0397 22.035 40.8229C21.9149 40.6032 21.8211 40.341 21.7537 40.0363C21.6893 39.7316 21.657 39.3786 21.657 38.9772V37.9313C21.657 37.4274 21.7068 37.0026 21.8065 36.6569C21.9061 36.3083 22.0482 36.0256 22.2327 35.8088C22.4173 35.589 22.637 35.4294 22.8919 35.3298C23.1497 35.2301 23.4368 35.1803 23.7532 35.1803C24.0081 35.1803 24.2425 35.2126 24.4564 35.277C24.6732 35.3385 24.8665 35.4367 25.0364 35.5714C25.2093 35.7062 25.3558 35.882 25.4759 36.0988C25.5989 36.3127 25.6927 36.5719 25.7571 36.8766C25.8216 37.1784 25.8538 37.5299 25.8538 37.9313ZM24.7947 39.1266V37.7731C24.7947 37.5182 24.7801 37.2941 24.7508 37.1007C24.7215 36.9045 24.6776 36.7389 24.619 36.6042C24.5633 36.4665 24.493 36.3551 24.408 36.2702C24.3231 36.1823 24.2264 36.1193 24.118 36.0812C24.0096 36.0402 23.888 36.0197 23.7532 36.0197C23.5892 36.0197 23.4427 36.0519 23.3138 36.1164C23.1849 36.1779 23.0765 36.2775 22.9886 36.4152C22.9007 36.5529 22.8333 36.7345 22.7864 36.9601C22.7425 37.1828 22.7205 37.4538 22.7205 37.7731V39.1266C22.7205 39.3844 22.7352 39.6115 22.7645 39.8078C22.7938 40.0041 22.8377 40.1725 22.8963 40.3131C22.9549 40.4508 23.0252 40.5651 23.1072 40.6559C23.1922 40.7438 23.2889 40.8083 23.3973 40.8493C23.5086 40.8903 23.6302 40.9108 23.762 40.9108C23.929 40.9108 24.077 40.8786 24.2059 40.8141C24.3348 40.7497 24.4432 40.6471 24.5311 40.5065C24.619 40.363 24.6849 40.1769 24.7288 39.9484C24.7728 39.7199 24.7947 39.446 24.7947 39.1266ZM29.9979 35.2287H30.1297V36.0944H30.055C29.6771 36.0944 29.3504 36.153 29.075 36.2702C28.8026 36.3874 28.5784 36.5485 28.4026 36.7536C28.2269 36.9587 28.095 37.1989 28.0071 37.4743C27.9222 37.7467 27.8797 38.0368 27.8797 38.3444V39.3507C27.8797 39.6056 27.9075 39.8312 27.9632 40.0275C28.0189 40.2209 28.0965 40.3835 28.1961 40.5153C28.2986 40.6442 28.4158 40.7423 28.5477 40.8097C28.6795 40.8771 28.8216 40.9108 28.9739 40.9108C29.1321 40.9108 29.2757 40.8786 29.4046 40.8141C29.5335 40.7467 29.6434 40.6545 29.7342 40.5373C29.825 40.4201 29.8939 40.2809 29.9407 40.1198C29.9876 39.9587 30.011 39.7829 30.011 39.5924C30.011 39.4108 29.9876 39.2409 29.9407 39.0827C29.8968 38.9215 29.8309 38.7809 29.743 38.6608C29.6551 38.5378 29.5452 38.4425 29.4134 38.3752C29.2845 38.3048 29.1351 38.2697 28.9651 38.2697C28.7542 38.2697 28.5623 38.3195 28.3895 38.4191C28.2195 38.5187 28.0818 38.6491 27.9764 38.8102C27.8738 38.9684 27.8182 39.1369 27.8094 39.3156L27.4051 39.1838C27.4285 38.9113 27.4886 38.6667 27.5853 38.4499C27.6849 38.2331 27.8152 38.0485 27.9764 37.8962C28.1375 37.7438 28.3235 37.6281 28.5345 37.549C28.7484 37.467 28.9827 37.4259 29.2376 37.4259C29.5482 37.4259 29.8177 37.4845 30.0462 37.6017C30.2747 37.7189 30.4637 37.8786 30.6131 38.0807C30.7654 38.2799 30.8782 38.5085 30.9515 38.7663C31.0276 39.0212 31.0657 39.2878 31.0657 39.5661C31.0657 39.8737 31.0189 40.1608 30.9251 40.4274C30.8314 40.6911 30.6937 40.9225 30.512 41.1217C30.3333 41.321 30.1151 41.4762 29.8572 41.5876C29.6024 41.6989 29.3123 41.7546 28.9871 41.7546C28.6443 41.7546 28.3382 41.6886 28.0687 41.5568C27.8021 41.425 27.575 41.2433 27.3875 41.0119C27.2029 40.7804 27.0623 40.5138 26.9656 40.2121C26.869 39.9103 26.8206 39.591 26.8206 39.2541V38.8146C26.8206 38.3283 26.8821 37.8698 27.0052 37.4391C27.1282 37.0055 27.3172 36.6232 27.5721 36.2922C27.8299 35.9611 28.1595 35.7018 28.5609 35.5143C28.9622 35.3239 29.4412 35.2287 29.9979 35.2287Z" fill="#010202"/>
<path opacity="0.1" d="M25.8043 46.8652V47.624C25.8043 48.0319 25.7678 48.376 25.6949 48.6562C25.622 48.9365 25.5172 49.1621 25.3804 49.333C25.2437 49.5039 25.0785 49.6281 24.8848 49.7056C24.6934 49.7808 24.4769 49.8184 24.2354 49.8184C24.044 49.8184 23.8674 49.7944 23.7056 49.7466C23.5438 49.6987 23.398 49.6224 23.2681 49.5176C23.1405 49.4105 23.0311 49.2715 22.94 49.1006C22.8489 48.9297 22.7794 48.7223 22.7315 48.4785C22.6837 48.2347 22.6597 47.9499 22.6597 47.624V46.8652C22.6597 46.4574 22.6962 46.1156 22.7691 45.8398C22.8443 45.5641 22.9503 45.3431 23.087 45.1768C23.2237 45.0081 23.3878 44.8874 23.5792 44.8145C23.7728 44.7415 23.9893 44.7051 24.2286 44.7051C24.4223 44.7051 24.6 44.729 24.7618 44.7769C24.9258 44.8224 25.0717 44.8965 25.1993 44.999C25.3269 45.0993 25.4351 45.2337 25.524 45.4023C25.6151 45.5687 25.6846 45.7726 25.7325 46.0142C25.7803 46.2557 25.8043 46.5394 25.8043 46.8652ZM25.1685 47.7266V46.7593C25.1685 46.536 25.1548 46.34 25.1275 46.1714C25.1024 46.0005 25.0648 45.8547 25.0147 45.7339C24.9646 45.6131 24.9008 45.5151 24.8233 45.4399C24.7481 45.3647 24.6604 45.3101 24.5601 45.2759C24.4621 45.2394 24.3516 45.2212 24.2286 45.2212C24.0782 45.2212 23.9449 45.2497 23.8287 45.3066C23.7125 45.3613 23.6145 45.4491 23.5347 45.5698C23.4573 45.6906 23.398 45.849 23.357 46.0449C23.316 46.2409 23.2955 46.479 23.2955 46.7593V47.7266C23.2955 47.9499 23.308 48.147 23.3331 48.3179C23.3604 48.4888 23.4003 48.6369 23.4527 48.7622C23.5051 48.8853 23.5689 48.9867 23.6441 49.0664C23.7193 49.1462 23.8059 49.2054 23.9039 49.2441C24.0041 49.2806 24.1146 49.2988 24.2354 49.2988C24.3904 49.2988 24.5259 49.2692 24.6422 49.21C24.7584 49.1507 24.8552 49.0584 24.9327 48.9331C25.0124 48.8055 25.0717 48.6426 25.1104 48.4443C25.1491 48.2438 25.1685 48.0046 25.1685 47.7266ZM29.834 44.7734V45.1289L27.773 49.75H27.1065L29.1641 45.293H26.4708V44.7734H29.834Z" fill="#010202"/>
<path d="M78.2393 26.0228V27.6497C78.2393 28.429 78.1618 29.0944 78.0068 29.6458C77.8564 30.1927 77.6377 30.637 77.3506 30.9788C77.0635 31.3206 76.7194 31.5713 76.3184 31.7308C75.9219 31.8903 75.4775 31.9701 74.9854 31.9701C74.5934 31.9701 74.2288 31.9199 73.8916 31.8197C73.5589 31.7194 73.2581 31.5622 72.9893 31.348C72.7204 31.1338 72.4902 30.8581 72.2988 30.5208C72.112 30.179 71.9661 29.7712 71.8613 29.2972C71.7611 28.8232 71.7109 28.2741 71.7109 27.6497V26.0228C71.7109 25.2389 71.7884 24.5781 71.9434 24.0404C72.0983 23.498 72.3193 23.0583 72.6064 22.721C72.8936 22.3792 73.2354 22.1309 73.6318 21.9759C74.0329 21.821 74.4795 21.7435 74.9717 21.7435C75.3682 21.7435 75.7327 21.7936 76.0654 21.8939C76.4027 21.9896 76.7035 22.1423 76.9678 22.3519C77.2367 22.5615 77.4645 22.835 77.6514 23.1722C77.8428 23.5049 77.9886 23.9082 78.0889 24.3822C78.1891 24.8516 78.2393 25.3984 78.2393 26.0228ZM76.5918 27.8822V25.7767C76.5918 25.3802 76.569 25.0316 76.5234 24.7308C76.4779 24.4255 76.4095 24.168 76.3184 23.9583C76.2318 23.7441 76.1224 23.571 75.9902 23.4388C75.8581 23.3021 75.7077 23.2041 75.5391 23.1449C75.3704 23.0811 75.1813 23.0492 74.9717 23.0492C74.7165 23.0492 74.4886 23.0993 74.2881 23.1995C74.0876 23.2952 73.9189 23.4502 73.7822 23.6644C73.6455 23.8786 73.5407 24.1611 73.4678 24.512C73.3994 24.8584 73.3652 25.2799 73.3652 25.7767V27.8822C73.3652 28.2832 73.388 28.6364 73.4336 28.9417C73.4792 29.2471 73.5475 29.5091 73.6387 29.7279C73.7298 29.9421 73.8392 30.1198 73.9668 30.2611C74.099 30.3978 74.2493 30.498 74.418 30.5618C74.5911 30.6256 74.7803 30.6576 74.9854 30.6576C75.2451 30.6576 75.4753 30.6074 75.6758 30.5072C75.8763 30.4069 76.0449 30.2474 76.1816 30.0286C76.3184 29.8053 76.4209 29.5159 76.4893 29.1605C76.5576 28.805 76.5918 28.3789 76.5918 27.8822ZM81.4385 27.2054L80.126 26.8841L80.666 21.8802H86.0322V23.2747H82.0332L81.7598 25.7152C81.9147 25.624 82.1289 25.5352 82.4023 25.4486C82.6758 25.3574 82.988 25.3118 83.3389 25.3118C83.8083 25.3118 84.2275 25.3893 84.5967 25.5443C84.9704 25.6947 85.2871 25.9157 85.5469 26.2074C85.8066 26.4945 86.0049 26.8454 86.1416 27.2601C86.2783 27.6702 86.3467 28.1328 86.3467 28.6478C86.3467 29.1081 86.2783 29.5387 86.1416 29.9398C86.0094 30.3408 85.8089 30.694 85.54 30.9993C85.2712 31.3047 84.9316 31.5439 84.5215 31.7171C84.1159 31.8857 83.6351 31.9701 83.0791 31.9701C82.6644 31.9701 82.2656 31.9108 81.8828 31.7923C81.5046 31.6693 81.165 31.4893 80.8643 31.2523C80.5635 31.0107 80.3219 30.7145 80.1396 30.3636C79.9574 30.0081 79.8525 29.6003 79.8252 29.14H81.4385C81.4795 29.4635 81.5684 29.7393 81.7051 29.9671C81.8464 30.1904 82.0332 30.3613 82.2656 30.4798C82.498 30.5983 82.7669 30.6576 83.0723 30.6576C83.3503 30.6576 83.5895 30.6097 83.79 30.514C83.9906 30.4137 84.1569 30.2725 84.2891 30.0902C84.4258 29.9033 84.526 29.6846 84.5898 29.4339C84.6582 29.1833 84.6924 28.9053 84.6924 28.5999C84.6924 28.3083 84.6536 28.0417 84.5762 27.8001C84.5033 27.5586 84.3916 27.349 84.2412 27.1712C84.0954 26.9935 83.9108 26.8568 83.6875 26.7611C83.4642 26.6608 83.2067 26.6107 82.915 26.6107C82.5231 26.6107 82.2223 26.6676 82.0127 26.7816C81.8076 26.8955 81.6162 27.0368 81.4385 27.2054Z" fill="#010202"/>
<path opacity="0.4" d="M78.8538 15.7646V16.8105C78.8538 17.3115 78.804 17.7393 78.7044 18.0938C78.6077 18.4453 78.4671 18.731 78.2825 18.9507C78.098 19.1704 77.8768 19.3315 77.619 19.4341C77.3641 19.5366 77.0784 19.5879 76.762 19.5879C76.5101 19.5879 76.2757 19.5557 76.0589 19.4912C75.845 19.4268 75.6517 19.3257 75.4788 19.188C75.306 19.0503 75.158 18.873 75.035 18.6562C74.9149 18.4365 74.8211 18.1743 74.7537 17.8696C74.6893 17.5649 74.657 17.2119 74.657 16.8105V15.7646C74.657 15.2607 74.7068 14.8359 74.8065 14.4902C74.9061 14.1416 75.0482 13.8589 75.2327 13.6421C75.4173 13.4224 75.637 13.2627 75.8919 13.1631C76.1497 13.0635 76.4368 13.0137 76.7532 13.0137C77.0081 13.0137 77.2425 13.0459 77.4564 13.1104C77.6732 13.1719 77.8665 13.27 78.0364 13.4048C78.2093 13.5396 78.3558 13.7153 78.4759 13.9321C78.5989 14.146 78.6927 14.4053 78.7571 14.71C78.8216 15.0117 78.8538 15.3633 78.8538 15.7646ZM77.7947 16.96V15.6064C77.7947 15.3516 77.7801 15.1274 77.7508 14.9341C77.7215 14.7378 77.6776 14.5723 77.619 14.4375C77.5633 14.2998 77.493 14.1885 77.408 14.1035C77.3231 14.0156 77.2264 13.9526 77.118 13.9146C77.0096 13.8735 76.888 13.853 76.7532 13.853C76.5892 13.853 76.4427 13.8853 76.3138 13.9497C76.1849 14.0112 76.0765 14.1108 75.9886 14.2485C75.9007 14.3862 75.8333 14.5679 75.7864 14.7935C75.7425 15.0161 75.7205 15.2871 75.7205 15.6064V16.96C75.7205 17.2178 75.7352 17.4448 75.7645 17.6411C75.7938 17.8374 75.8377 18.0059 75.8963 18.1465C75.9549 18.2842 76.0252 18.3984 76.1072 18.4893C76.1922 18.5771 76.2889 18.6416 76.3973 18.6826C76.5086 18.7236 76.6302 18.7441 76.762 18.7441C76.929 18.7441 77.077 18.7119 77.2059 18.6475C77.3348 18.583 77.4432 18.4805 77.5311 18.3398C77.619 18.1963 77.6849 18.0103 77.7288 17.7817C77.7728 17.5532 77.7947 17.2793 77.7947 16.96ZM84.2064 17.2192V18.063H79.5921L79.5569 17.4258L82.3167 13.1016H83.1649L82.2464 14.6748L80.66 17.2192H84.2064ZM83.4066 13.1016V19.5H82.3475V13.1016H83.4066Z" fill="#010202"/>
<path opacity="0.1" d="M78.8043 7.11523V7.87402C78.8043 8.2819 78.7678 8.62598 78.6949 8.90625C78.622 9.18652 78.5172 9.41211 78.3804 9.58301C78.2437 9.75391 78.0785 9.87809 77.8848 9.95557C77.6934 10.0308 77.4769 10.0684 77.2354 10.0684C77.044 10.0684 76.8674 10.0444 76.7056 9.99658C76.5438 9.94873 76.398 9.8724 76.2681 9.76758C76.1405 9.66048 76.0311 9.52148 75.94 9.35059C75.8489 9.17969 75.7794 8.97233 75.7315 8.72852C75.6837 8.4847 75.6597 8.19987 75.6597 7.87402V7.11523C75.6597 6.70736 75.6962 6.36556 75.7691 6.08984C75.8443 5.81413 75.9503 5.5931 76.087 5.42676C76.2237 5.25814 76.3878 5.13737 76.5792 5.06445C76.7728 4.99154 76.9893 4.95508 77.2286 4.95508C77.4223 4.95508 77.6 4.979 77.7618 5.02686C77.9258 5.07243 78.0717 5.14648 78.1993 5.24902C78.3269 5.34928 78.4351 5.48372 78.524 5.65234C78.6151 5.81868 78.6846 6.02262 78.7325 6.26416C78.7803 6.5057 78.8043 6.78939 78.8043 7.11523ZM78.1685 7.97656V7.00928C78.1685 6.78597 78.1548 6.59001 78.1275 6.42139C78.1024 6.25049 78.0648 6.10465 78.0147 5.98389C77.9646 5.86312 77.9008 5.76514 77.8233 5.68994C77.7481 5.61475 77.6604 5.56006 77.5601 5.52588C77.4621 5.48942 77.3516 5.47119 77.2286 5.47119C77.0782 5.47119 76.9449 5.49967 76.8287 5.55664C76.7125 5.61133 76.6145 5.69906 76.5347 5.81982C76.4573 5.94059 76.398 6.09896 76.357 6.29492C76.316 6.49089 76.2955 6.729 76.2955 7.00928V7.97656C76.2955 8.19987 76.308 8.39697 76.3331 8.56787C76.3604 8.73877 76.4003 8.88688 76.4527 9.01221C76.5051 9.13525 76.5689 9.23665 76.6441 9.31641C76.7193 9.39616 76.8059 9.4554 76.9039 9.49414C77.0041 9.5306 77.1146 9.54883 77.2354 9.54883C77.3904 9.54883 77.5259 9.51921 77.6422 9.45996C77.7584 9.40072 77.8552 9.30843 77.9327 9.18311C78.0124 9.0555 78.0717 8.89258 78.1104 8.69434C78.1491 8.49382 78.1685 8.25456 78.1685 7.97656ZM80.5406 7.20068H80.9918C81.2128 7.20068 81.3951 7.16423 81.5386 7.09131C81.6845 7.01611 81.7927 6.91471 81.8633 6.78711C81.9363 6.65723 81.9727 6.51139 81.9727 6.34961C81.9727 6.1582 81.9408 5.99756 81.877 5.86768C81.8132 5.73779 81.7175 5.63981 81.5899 5.57373C81.4623 5.50765 81.3005 5.47461 81.1046 5.47461C80.9268 5.47461 80.7696 5.50993 80.6329 5.58057C80.4984 5.64893 80.3925 5.74691 80.315 5.87451C80.2398 6.00212 80.2022 6.15251 80.2022 6.32568H79.5699C79.5699 6.07275 79.6337 5.84261 79.7613 5.63525C79.8889 5.4279 80.0678 5.2627 80.2979 5.13965C80.5303 5.0166 80.7992 4.95508 81.1046 4.95508C81.4053 4.95508 81.6685 5.00863 81.8941 5.11572C82.1197 5.22054 82.2951 5.37777 82.4205 5.5874C82.5458 5.79476 82.6085 6.05339 82.6085 6.36328C82.6085 6.48861 82.5788 6.62305 82.5196 6.7666C82.4626 6.90788 82.3726 7.04004 82.2496 7.16309C82.1288 7.28613 81.9716 7.38753 81.7779 7.46729C81.5842 7.54476 81.3518 7.5835 81.0806 7.5835H80.5406V7.20068ZM80.5406 7.72021V7.34082H81.0806C81.3974 7.34082 81.6594 7.37842 81.8668 7.45361C82.0741 7.52881 82.237 7.62907 82.3555 7.75439C82.4763 7.87972 82.5606 8.01758 82.6085 8.16797C82.6586 8.31608 82.6837 8.46419 82.6837 8.6123C82.6837 8.84473 82.6438 9.05094 82.564 9.23096C82.4866 9.41097 82.376 9.56364 82.2325 9.68896C82.0912 9.81429 81.9249 9.90885 81.7335 9.97266C81.5421 10.0365 81.3336 10.0684 81.108 10.0684C80.8915 10.0684 80.6876 10.0376 80.4962 9.97607C80.307 9.91455 80.1395 9.82568 79.9937 9.70947C79.8479 9.59098 79.7339 9.44629 79.6519 9.27539C79.5699 9.10221 79.5289 8.90511 79.5289 8.68408H80.1612C80.1612 8.85726 80.1988 9.00879 80.274 9.13867C80.3515 9.26855 80.4608 9.36995 80.6021 9.44287C80.7457 9.51351 80.9143 9.54883 81.108 9.54883C81.3017 9.54883 81.468 9.51579 81.607 9.44971C81.7483 9.38135 81.8565 9.27881 81.9317 9.14209C82.0092 9.00537 82.0479 8.83333 82.0479 8.62598C82.0479 8.41862 82.0046 8.24886 81.918 8.1167C81.8314 7.98226 81.7084 7.88314 81.5489 7.81934C81.3917 7.75326 81.206 7.72021 80.9918 7.72021H80.5406Z" fill="#010202"/>
<path opacity="0.4" d="M78.8538 37.9313V38.9772C78.8538 39.4782 78.804 39.9059 78.7044 40.2604C78.6077 40.612 78.4671 40.8976 78.2825 41.1173C78.098 41.3371 77.8768 41.4982 77.619 41.6007C77.3641 41.7033 77.0784 41.7546 76.762 41.7546C76.5101 41.7546 76.2757 41.7223 76.0589 41.6579C75.845 41.5934 75.6517 41.4923 75.4788 41.3547C75.306 41.217 75.158 41.0397 75.035 40.8229C74.9149 40.6032 74.8211 40.341 74.7537 40.0363C74.6893 39.7316 74.657 39.3786 74.657 38.9772V37.9313C74.657 37.4274 74.7068 37.0026 74.8065 36.6569C74.9061 36.3083 75.0482 36.0256 75.2327 35.8088C75.4173 35.589 75.637 35.4294 75.8919 35.3298C76.1497 35.2301 76.4368 35.1803 76.7532 35.1803C77.0081 35.1803 77.2425 35.2126 77.4564 35.277C77.6732 35.3385 77.8665 35.4367 78.0364 35.5714C78.2093 35.7062 78.3558 35.882 78.4759 36.0988C78.5989 36.3127 78.6927 36.5719 78.7571 36.8766C78.8216 37.1784 78.8538 37.5299 78.8538 37.9313ZM77.7947 39.1266V37.7731C77.7947 37.5182 77.7801 37.2941 77.7508 37.1007C77.7215 36.9045 77.6776 36.7389 77.619 36.6042C77.5633 36.4665 77.493 36.3551 77.408 36.2702C77.3231 36.1823 77.2264 36.1193 77.118 36.0812C77.0096 36.0402 76.888 36.0197 76.7532 36.0197C76.5892 36.0197 76.4427 36.0519 76.3138 36.1164C76.1849 36.1779 76.0765 36.2775 75.9886 36.4152C75.9007 36.5529 75.8333 36.7345 75.7864 36.9601C75.7425 37.1828 75.7205 37.4538 75.7205 37.7731V39.1266C75.7205 39.3844 75.7352 39.6115 75.7645 39.8078C75.7938 40.0041 75.8377 40.1725 75.8963 40.3131C75.9549 40.4508 76.0252 40.5651 76.1072 40.6559C76.1922 40.7438 76.2889 40.8083 76.3973 40.8493C76.5086 40.8903 76.6302 40.9108 76.762 40.9108C76.929 40.9108 77.077 40.8786 77.2059 40.8141C77.3348 40.7497 77.4432 40.6471 77.5311 40.5065C77.619 40.363 77.6849 40.1769 77.7288 39.9484C77.7728 39.7199 77.7947 39.446 77.7947 39.1266ZM82.9979 35.2287H83.1297V36.0944H83.055C82.6771 36.0944 82.3504 36.153 82.075 36.2702C81.8026 36.3874 81.5784 36.5485 81.4026 36.7536C81.2269 36.9587 81.095 37.1989 81.0071 37.4743C80.9222 37.7467 80.8797 38.0368 80.8797 38.3444V39.3507C80.8797 39.6056 80.9075 39.8312 80.9632 40.0275C81.0189 40.2209 81.0965 40.3835 81.1961 40.5153C81.2986 40.6442 81.4158 40.7423 81.5477 40.8097C81.6795 40.8771 81.8216 40.9108 81.9739 40.9108C82.1321 40.9108 82.2757 40.8786 82.4046 40.8141C82.5335 40.7467 82.6434 40.6545 82.7342 40.5373C82.825 40.4201 82.8939 40.2809 82.9407 40.1198C82.9876 39.9587 83.011 39.7829 83.011 39.5924C83.011 39.4108 82.9876 39.2409 82.9407 39.0827C82.8968 38.9215 82.8309 38.7809 82.743 38.6608C82.6551 38.5378 82.5452 38.4425 82.4134 38.3752C82.2845 38.3048 82.1351 38.2697 81.9651 38.2697C81.7542 38.2697 81.5623 38.3195 81.3895 38.4191C81.2195 38.5187 81.0818 38.6491 80.9764 38.8102C80.8738 38.9684 80.8182 39.1369 80.8094 39.3156L80.4051 39.1838C80.4285 38.9113 80.4886 38.6667 80.5853 38.4499C80.6849 38.2331 80.8152 38.0485 80.9764 37.8962C81.1375 37.7438 81.3235 37.6281 81.5345 37.549C81.7484 37.467 81.9827 37.4259 82.2376 37.4259C82.5482 37.4259 82.8177 37.4845 83.0462 37.6017C83.2747 37.7189 83.4637 37.8786 83.6131 38.0807C83.7654 38.2799 83.8782 38.5085 83.9515 38.7663C84.0276 39.0212 84.0657 39.2878 84.0657 39.5661C84.0657 39.8737 84.0189 40.1608 83.9251 40.4274C83.8314 40.6911 83.6937 40.9225 83.512 41.1217C83.3333 41.321 83.1151 41.4762 82.8572 41.5876C82.6024 41.6989 82.3123 41.7546 81.9871 41.7546C81.6443 41.7546 81.3382 41.6886 81.0687 41.5568C80.8021 41.425 80.575 41.2433 80.3875 41.0119C80.2029 40.7804 80.0623 40.5138 79.9656 40.2121C79.869 39.9103 79.8206 39.591 79.8206 39.2541V38.8146C79.8206 38.3283 79.8821 37.8698 80.0052 37.4391C80.1282 37.0055 80.3172 36.6232 80.5721 36.2922C80.8299 35.9611 81.1595 35.7018 81.5609 35.5143C81.9622 35.3239 82.4412 35.2287 82.9979 35.2287Z" fill="#010202"/>
<path opacity="0.1" d="M78.8043 46.8652V47.624C78.8043 48.0319 78.7678 48.376 78.6949 48.6562C78.622 48.9365 78.5172 49.1621 78.3804 49.333C78.2437 49.5039 78.0785 49.6281 77.8848 49.7056C77.6934 49.7808 77.4769 49.8184 77.2354 49.8184C77.044 49.8184 76.8674 49.7944 76.7056 49.7466C76.5438 49.6987 76.398 49.6224 76.2681 49.5176C76.1405 49.4105 76.0311 49.2715 75.94 49.1006C75.8489 48.9297 75.7794 48.7223 75.7315 48.4785C75.6837 48.2347 75.6597 47.9499 75.6597 47.624V46.8652C75.6597 46.4574 75.6962 46.1156 75.7691 45.8398C75.8443 45.5641 75.9503 45.3431 76.087 45.1768C76.2237 45.0081 76.3878 44.8874 76.5792 44.8145C76.7728 44.7415 76.9893 44.7051 77.2286 44.7051C77.4223 44.7051 77.6 44.729 77.7618 44.7769C77.9258 44.8224 78.0717 44.8965 78.1993 44.999C78.3269 45.0993 78.4351 45.2337 78.524 45.4023C78.6151 45.5687 78.6846 45.7726 78.7325 46.0142C78.7803 46.2557 78.8043 46.5394 78.8043 46.8652ZM78.1685 47.7266V46.7593C78.1685 46.536 78.1548 46.34 78.1275 46.1714C78.1024 46.0005 78.0648 45.8547 78.0147 45.7339C77.9646 45.6131 77.9008 45.5151 77.8233 45.4399C77.7481 45.3647 77.6604 45.3101 77.5601 45.2759C77.4621 45.2394 77.3516 45.2212 77.2286 45.2212C77.0782 45.2212 76.9449 45.2497 76.8287 45.3066C76.7125 45.3613 76.6145 45.4491 76.5347 45.5698C76.4573 45.6906 76.398 45.849 76.357 46.0449C76.316 46.2409 76.2955 46.479 76.2955 46.7593V47.7266C76.2955 47.9499 76.308 48.147 76.3331 48.3179C76.3604 48.4888 76.4003 48.6369 76.4527 48.7622C76.5051 48.8853 76.5689 48.9867 76.6441 49.0664C76.7193 49.1462 76.8059 49.2054 76.9039 49.2441C77.0041 49.2806 77.1146 49.2988 77.2354 49.2988C77.3904 49.2988 77.5259 49.2692 77.6422 49.21C77.7584 49.1507 77.8552 49.0584 77.9327 48.9331C78.0124 48.8055 78.0717 48.6426 78.1104 48.4443C78.1491 48.2438 78.1685 48.0046 78.1685 47.7266ZM82.834 44.7734V45.1289L80.773 49.75H80.1065L82.1641 45.293H79.4708V44.7734H82.834Z" fill="#010202"/>
<path d="M53 3L53 51" stroke="#BFBEBF" stroke-width="0.206"/>
<path d="M131.239 26.0228V27.6497C131.239 28.429 131.162 29.0944 131.007 29.6458C130.856 30.1927 130.638 30.637 130.351 30.9788C130.063 31.3206 129.719 31.5713 129.318 31.7308C128.922 31.8903 128.478 31.9701 127.985 31.9701C127.593 31.9701 127.229 31.9199 126.892 31.8197C126.559 31.7194 126.258 31.5622 125.989 31.348C125.72 31.1338 125.49 30.8581 125.299 30.5208C125.112 30.179 124.966 29.7712 124.861 29.2972C124.761 28.8232 124.711 28.2741 124.711 27.6497V26.0228C124.711 25.2389 124.788 24.5781 124.943 24.0404C125.098 23.498 125.319 23.0583 125.606 22.721C125.894 22.3792 126.235 22.1309 126.632 21.9759C127.033 21.821 127.479 21.7435 127.972 21.7435C128.368 21.7435 128.733 21.7936 129.065 21.8939C129.403 21.9896 129.703 22.1423 129.968 22.3519C130.237 22.5615 130.465 22.835 130.651 23.1722C130.843 23.5049 130.989 23.9082 131.089 24.3822C131.189 24.8516 131.239 25.3984 131.239 26.0228ZM129.592 27.8822V25.7767C129.592 25.3802 129.569 25.0316 129.523 24.7308C129.478 24.4255 129.41 24.168 129.318 23.9583C129.232 23.7441 129.122 23.571 128.99 23.4388C128.858 23.3021 128.708 23.2041 128.539 23.1449C128.37 23.0811 128.181 23.0492 127.972 23.0492C127.716 23.0492 127.489 23.0993 127.288 23.1995C127.088 23.2952 126.919 23.4502 126.782 23.6644C126.646 23.8786 126.541 24.1611 126.468 24.512C126.399 24.8584 126.365 25.2799 126.365 25.7767V27.8822C126.365 28.2832 126.388 28.6364 126.434 28.9417C126.479 29.2471 126.548 29.5091 126.639 29.7279C126.73 29.9421 126.839 30.1198 126.967 30.2611C127.099 30.3978 127.249 30.498 127.418 30.5618C127.591 30.6256 127.78 30.6576 127.985 30.6576C128.245 30.6576 128.475 30.6074 128.676 30.5072C128.876 30.4069 129.045 30.2474 129.182 30.0286C129.318 29.8053 129.421 29.5159 129.489 29.1605C129.558 28.805 129.592 28.3789 129.592 27.8822ZM134.438 27.2054L133.126 26.8841L133.666 21.8802H139.032V23.2747H135.033L134.76 25.7152C134.915 25.624 135.129 25.5352 135.402 25.4486C135.676 25.3574 135.988 25.3118 136.339 25.3118C136.808 25.3118 137.228 25.3893 137.597 25.5443C137.97 25.6947 138.287 25.9157 138.547 26.2074C138.807 26.4945 139.005 26.8454 139.142 27.2601C139.278 27.6702 139.347 28.1328 139.347 28.6478C139.347 29.1081 139.278 29.5387 139.142 29.9398C139.009 30.3408 138.809 30.694 138.54 30.9993C138.271 31.3047 137.932 31.5439 137.521 31.7171C137.116 31.8857 136.635 31.9701 136.079 31.9701C135.664 31.9701 135.266 31.9108 134.883 31.7923C134.505 31.6693 134.165 31.4893 133.864 31.2523C133.563 31.0107 133.322 30.7145 133.14 30.3636C132.957 30.0081 132.853 29.6003 132.825 29.14H134.438C134.479 29.4635 134.568 29.7393 134.705 29.9671C134.846 30.1904 135.033 30.3613 135.266 30.4798C135.498 30.5983 135.767 30.6576 136.072 30.6576C136.35 30.6576 136.59 30.6097 136.79 30.514C136.991 30.4137 137.157 30.2725 137.289 30.0902C137.426 29.9033 137.526 29.6846 137.59 29.4339C137.658 29.1833 137.692 28.9053 137.692 28.5999C137.692 28.3083 137.654 28.0417 137.576 27.8001C137.503 27.5586 137.392 27.349 137.241 27.1712C137.095 26.9935 136.911 26.8568 136.688 26.7611C136.464 26.6608 136.207 26.6107 135.915 26.6107C135.523 26.6107 135.222 26.6676 135.013 26.7816C134.808 26.8955 134.616 27.0368 134.438 27.2054Z" fill="#010202"/>
<path opacity="0.4" d="M131.854 15.7646V16.8105C131.854 17.3115 131.804 17.7393 131.704 18.0938C131.608 18.4453 131.467 18.731 131.283 18.9507C131.098 19.1704 130.877 19.3315 130.619 19.4341C130.364 19.5366 130.078 19.5879 129.762 19.5879C129.51 19.5879 129.276 19.5557 129.059 19.4912C128.845 19.4268 128.652 19.3257 128.479 19.188C128.306 19.0503 128.158 18.873 128.035 18.6562C127.915 18.4365 127.821 18.1743 127.754 17.8696C127.689 17.5649 127.657 17.2119 127.657 16.8105V15.7646C127.657 15.2607 127.707 14.8359 127.806 14.4902C127.906 14.1416 128.048 13.8589 128.233 13.6421C128.417 13.4224 128.637 13.2627 128.892 13.1631C129.15 13.0635 129.437 13.0137 129.753 13.0137C130.008 13.0137 130.242 13.0459 130.456 13.1104C130.673 13.1719 130.867 13.27 131.036 13.4048C131.209 13.5396 131.356 13.7153 131.476 13.9321C131.599 14.146 131.693 14.4053 131.757 14.71C131.822 15.0117 131.854 15.3633 131.854 15.7646ZM130.795 16.96V15.6064C130.795 15.3516 130.78 15.1274 130.751 14.9341C130.721 14.7378 130.678 14.5723 130.619 14.4375C130.563 14.2998 130.493 14.1885 130.408 14.1035C130.323 14.0156 130.226 13.9526 130.118 13.9146C130.01 13.8735 129.888 13.853 129.753 13.853C129.589 13.853 129.443 13.8853 129.314 13.9497C129.185 14.0112 129.076 14.1108 128.989 14.2485C128.901 14.3862 128.833 14.5679 128.786 14.7935C128.742 15.0161 128.721 15.2871 128.721 15.6064V16.96C128.721 17.2178 128.735 17.4448 128.764 17.6411C128.794 17.8374 128.838 18.0059 128.896 18.1465C128.955 18.2842 129.025 18.3984 129.107 18.4893C129.192 18.5771 129.289 18.6416 129.397 18.6826C129.509 18.7236 129.63 18.7441 129.762 18.7441C129.929 18.7441 130.077 18.7119 130.206 18.6475C130.335 18.583 130.443 18.4805 130.531 18.3398C130.619 18.1963 130.685 18.0103 130.729 17.7817C130.773 17.5532 130.795 17.2793 130.795 16.96ZM137.206 17.2192V18.063H132.592L132.557 17.4258L135.317 13.1016H136.165L135.246 14.6748L133.66 17.2192H137.206ZM136.407 13.1016V19.5H135.347V13.1016H136.407Z" fill="#010202"/>
<path opacity="0.1" d="M131.804 7.11523V7.87402C131.804 8.2819 131.768 8.62598 131.695 8.90625C131.622 9.18652 131.517 9.41211 131.38 9.58301C131.244 9.75391 131.079 9.87809 130.885 9.95557C130.693 10.0308 130.477 10.0684 130.235 10.0684C130.044 10.0684 129.867 10.0444 129.706 9.99658C129.544 9.94873 129.398 9.8724 129.268 9.76758C129.141 9.66048 129.031 9.52148 128.94 9.35059C128.849 9.17969 128.779 8.97233 128.732 8.72852C128.684 8.4847 128.66 8.19987 128.66 7.87402V7.11523C128.66 6.70736 128.696 6.36556 128.769 6.08984C128.844 5.81413 128.95 5.5931 129.087 5.42676C129.224 5.25814 129.388 5.13737 129.579 5.06445C129.773 4.99154 129.989 4.95508 130.229 4.95508C130.422 4.95508 130.6 4.979 130.762 5.02686C130.926 5.07243 131.072 5.14648 131.199 5.24902C131.327 5.34928 131.435 5.48372 131.524 5.65234C131.615 5.81868 131.685 6.02262 131.732 6.26416C131.78 6.5057 131.804 6.78939 131.804 7.11523ZM131.169 7.97656V7.00928C131.169 6.78597 131.155 6.59001 131.128 6.42139C131.102 6.25049 131.065 6.10465 131.015 5.98389C130.965 5.86312 130.901 5.76514 130.823 5.68994C130.748 5.61475 130.66 5.56006 130.56 5.52588C130.462 5.48942 130.352 5.47119 130.229 5.47119C130.078 5.47119 129.945 5.49967 129.829 5.55664C129.712 5.61133 129.614 5.69906 129.535 5.81982C129.457 5.94059 129.398 6.09896 129.357 6.29492C129.316 6.49089 129.295 6.729 129.295 7.00928V7.97656C129.295 8.19987 129.308 8.39697 129.333 8.56787C129.36 8.73877 129.4 8.88688 129.453 9.01221C129.505 9.13525 129.569 9.23665 129.644 9.31641C129.719 9.39616 129.806 9.4554 129.904 9.49414C130.004 9.5306 130.115 9.54883 130.235 9.54883C130.39 9.54883 130.526 9.51921 130.642 9.45996C130.758 9.40072 130.855 9.30843 130.933 9.18311C131.012 9.0555 131.072 8.89258 131.11 8.69434C131.149 8.49382 131.169 8.25456 131.169 7.97656ZM133.541 7.20068H133.992C134.213 7.20068 134.395 7.16423 134.539 7.09131C134.684 7.01611 134.793 6.91471 134.863 6.78711C134.936 6.65723 134.973 6.51139 134.973 6.34961C134.973 6.1582 134.941 5.99756 134.877 5.86768C134.813 5.73779 134.718 5.63981 134.59 5.57373C134.462 5.50765 134.301 5.47461 134.105 5.47461C133.927 5.47461 133.77 5.50993 133.633 5.58057C133.498 5.64893 133.392 5.74691 133.315 5.87451C133.24 6.00212 133.202 6.15251 133.202 6.32568H132.57C132.57 6.07275 132.634 5.84261 132.761 5.63525C132.889 5.4279 133.068 5.2627 133.298 5.13965C133.53 5.0166 133.799 4.95508 134.105 4.95508C134.405 4.95508 134.669 5.00863 134.894 5.11572C135.12 5.22054 135.295 5.37777 135.42 5.5874C135.546 5.79476 135.608 6.05339 135.608 6.36328C135.608 6.48861 135.579 6.62305 135.52 6.7666C135.463 6.90788 135.373 7.04004 135.25 7.16309C135.129 7.28613 134.972 7.38753 134.778 7.46729C134.584 7.54476 134.352 7.5835 134.081 7.5835H133.541V7.20068ZM133.541 7.72021V7.34082H134.081C134.397 7.34082 134.659 7.37842 134.867 7.45361C135.074 7.52881 135.237 7.62907 135.356 7.75439C135.476 7.87972 135.561 8.01758 135.608 8.16797C135.659 8.31608 135.684 8.46419 135.684 8.6123C135.684 8.84473 135.644 9.05094 135.564 9.23096C135.487 9.41097 135.376 9.56364 135.232 9.68896C135.091 9.81429 134.925 9.90885 134.733 9.97266C134.542 10.0365 134.334 10.0684 134.108 10.0684C133.891 10.0684 133.688 10.0376 133.496 9.97607C133.307 9.91455 133.14 9.82568 132.994 9.70947C132.848 9.59098 132.734 9.44629 132.652 9.27539C132.57 9.10221 132.529 8.90511 132.529 8.68408H133.161C133.161 8.85726 133.199 9.00879 133.274 9.13867C133.351 9.26855 133.461 9.36995 133.602 9.44287C133.746 9.51351 133.914 9.54883 134.108 9.54883C134.302 9.54883 134.468 9.51579 134.607 9.44971C134.748 9.38135 134.857 9.27881 134.932 9.14209C135.009 9.00537 135.048 8.83333 135.048 8.62598C135.048 8.41862 135.005 8.24886 134.918 8.1167C134.831 7.98226 134.708 7.88314 134.549 7.81934C134.392 7.75326 134.206 7.72021 133.992 7.72021H133.541Z" fill="#010202"/>
<path opacity="0.4" d="M131.854 37.9313V38.9772C131.854 39.4782 131.804 39.9059 131.704 40.2604C131.608 40.612 131.467 40.8976 131.283 41.1173C131.098 41.3371 130.877 41.4982 130.619 41.6007C130.364 41.7033 130.078 41.7546 129.762 41.7546C129.51 41.7546 129.276 41.7223 129.059 41.6579C128.845 41.5934 128.652 41.4923 128.479 41.3547C128.306 41.217 128.158 41.0397 128.035 40.8229C127.915 40.6032 127.821 40.341 127.754 40.0363C127.689 39.7316 127.657 39.3786 127.657 38.9772V37.9313C127.657 37.4274 127.707 37.0026 127.806 36.6569C127.906 36.3083 128.048 36.0256 128.233 35.8088C128.417 35.589 128.637 35.4294 128.892 35.3298C129.15 35.2301 129.437 35.1803 129.753 35.1803C130.008 35.1803 130.242 35.2126 130.456 35.277C130.673 35.3385 130.867 35.4367 131.036 35.5714C131.209 35.7062 131.356 35.882 131.476 36.0988C131.599 36.3127 131.693 36.5719 131.757 36.8766C131.822 37.1784 131.854 37.5299 131.854 37.9313ZM130.795 39.1266V37.7731C130.795 37.5182 130.78 37.2941 130.751 37.1007C130.721 36.9045 130.678 36.7389 130.619 36.6042C130.563 36.4665 130.493 36.3551 130.408 36.2702C130.323 36.1823 130.226 36.1193 130.118 36.0812C130.01 36.0402 129.888 36.0197 129.753 36.0197C129.589 36.0197 129.443 36.0519 129.314 36.1164C129.185 36.1779 129.076 36.2775 128.989 36.4152C128.901 36.5529 128.833 36.7345 128.786 36.9601C128.742 37.1828 128.721 37.4538 128.721 37.7731V39.1266C128.721 39.3844 128.735 39.6115 128.764 39.8078C128.794 40.0041 128.838 40.1725 128.896 40.3131C128.955 40.4508 129.025 40.5651 129.107 40.6559C129.192 40.7438 129.289 40.8083 129.397 40.8493C129.509 40.8903 129.63 40.9108 129.762 40.9108C129.929 40.9108 130.077 40.8786 130.206 40.8141C130.335 40.7497 130.443 40.6471 130.531 40.5065C130.619 40.363 130.685 40.1769 130.729 39.9484C130.773 39.7199 130.795 39.446 130.795 39.1266ZM135.998 35.2287H136.13V36.0944H136.055C135.677 36.0944 135.35 36.153 135.075 36.2702C134.803 36.3874 134.578 36.5485 134.403 36.7536C134.227 36.9587 134.095 37.1989 134.007 37.4743C133.922 37.7467 133.88 38.0368 133.88 38.3444V39.3507C133.88 39.6056 133.908 39.8312 133.963 40.0275C134.019 40.2209 134.096 40.3835 134.196 40.5153C134.299 40.6442 134.416 40.7423 134.548 40.8097C134.68 40.8771 134.822 40.9108 134.974 40.9108C135.132 40.9108 135.276 40.8786 135.405 40.8141C135.534 40.7467 135.643 40.6545 135.734 40.5373C135.825 40.4201 135.894 40.2809 135.941 40.1198C135.988 39.9587 136.011 39.7829 136.011 39.5924C136.011 39.4108 135.988 39.2409 135.941 39.0827C135.897 38.9215 135.831 38.7809 135.743 38.6608C135.655 38.5378 135.545 38.4425 135.413 38.3752C135.284 38.3048 135.135 38.2697 134.965 38.2697C134.754 38.2697 134.562 38.3195 134.389 38.4191C134.22 38.5187 134.082 38.6491 133.976 38.8102C133.874 38.9684 133.818 39.1369 133.809 39.3156L133.405 39.1838C133.429 38.9113 133.489 38.6667 133.585 38.4499C133.685 38.2331 133.815 38.0485 133.976 37.8962C134.138 37.7438 134.324 37.6281 134.534 37.549C134.748 37.467 134.983 37.4259 135.238 37.4259C135.548 37.4259 135.818 37.4845 136.046 37.6017C136.275 37.7189 136.464 37.8786 136.613 38.0807C136.765 38.2799 136.878 38.5085 136.951 38.7663C137.028 39.0212 137.066 39.2878 137.066 39.5661C137.066 39.8737 137.019 40.1608 136.925 40.4274C136.831 40.6911 136.694 40.9225 136.512 41.1217C136.333 41.321 136.115 41.4762 135.857 41.5876C135.602 41.6989 135.312 41.7546 134.987 41.7546C134.644 41.7546 134.338 41.6886 134.069 41.5568C133.802 41.425 133.575 41.2433 133.388 41.0119C133.203 40.7804 133.062 40.5138 132.966 40.2121C132.869 39.9103 132.821 39.591 132.821 39.2541V38.8146C132.821 38.3283 132.882 37.8698 133.005 37.4391C133.128 37.0055 133.317 36.6232 133.572 36.2922C133.83 35.9611 134.159 35.7018 134.561 35.5143C134.962 35.3239 135.441 35.2287 135.998 35.2287Z" fill="#010202"/>
<path opacity="0.1" d="M131.804 46.8652V47.624C131.804 48.0319 131.768 48.376 131.695 48.6562C131.622 48.9365 131.517 49.1621 131.38 49.333C131.244 49.5039 131.079 49.6281 130.885 49.7056C130.693 49.7808 130.477 49.8184 130.235 49.8184C130.044 49.8184 129.867 49.7944 129.706 49.7466C129.544 49.6987 129.398 49.6224 129.268 49.5176C129.141 49.4105 129.031 49.2715 128.94 49.1006C128.849 48.9297 128.779 48.7223 128.732 48.4785C128.684 48.2347 128.66 47.9499 128.66 47.624V46.8652C128.66 46.4574 128.696 46.1156 128.769 45.8398C128.844 45.5641 128.95 45.3431 129.087 45.1768C129.224 45.0081 129.388 44.8874 129.579 44.8145C129.773 44.7415 129.989 44.7051 130.229 44.7051C130.422 44.7051 130.6 44.729 130.762 44.7769C130.926 44.8224 131.072 44.8965 131.199 44.999C131.327 45.0993 131.435 45.2337 131.524 45.4023C131.615 45.5687 131.685 45.7726 131.732 46.0142C131.78 46.2557 131.804 46.5394 131.804 46.8652ZM131.169 47.7266V46.7593C131.169 46.536 131.155 46.34 131.128 46.1714C131.102 46.0005 131.065 45.8547 131.015 45.7339C130.965 45.6131 130.901 45.5151 130.823 45.4399C130.748 45.3647 130.66 45.3101 130.56 45.2759C130.462 45.2394 130.352 45.2212 130.229 45.2212C130.078 45.2212 129.945 45.2497 129.829 45.3066C129.712 45.3613 129.614 45.4491 129.535 45.5698C129.457 45.6906 129.398 45.849 129.357 46.0449C129.316 46.2409 129.295 46.479 129.295 46.7593V47.7266C129.295 47.9499 129.308 48.147 129.333 48.3179C129.36 48.4888 129.4 48.6369 129.453 48.7622C129.505 48.8853 129.569 48.9867 129.644 49.0664C129.719 49.1462 129.806 49.2054 129.904 49.2441C130.004 49.2806 130.115 49.2988 130.235 49.2988C130.39 49.2988 130.526 49.2692 130.642 49.21C130.758 49.1507 130.855 49.0584 130.933 48.9331C131.012 48.8055 131.072 48.6426 131.11 48.4443C131.149 48.2438 131.169 48.0046 131.169 47.7266ZM135.834 44.7734V45.1289L133.773 49.75H133.107L135.164 45.293H132.471V44.7734H135.834Z" fill="#010202"/>
<path d="M106 3L106 51" stroke="#BFBEBF" stroke-width="0.206"/>
</g>
<defs>
<filter id="filter0_d_30_3256" x="-1.79999" y="-2" width="163.6" height="58.04" filterUnits="userSpaceOnUse" color-interpolation-filters="sRGB">
<feFlood flood-opacity="0" result="BackgroundImageFix"/>
<feColorMatrix in="SourceAlpha" type="matrix" values="0 0 0 0 0 0 0 0 0 0 0 0 0 0 0 0 0 0 127 0" result="hardAlpha"/>
<feOffset/>
<feGaussianBlur stdDeviation="2.5"/>
<feComposite in2="hardAlpha" operator="out"/>
<feColorMatrix type="matrix" values="0 0 0 0 0 0 0 0 0 0 0 0 0 0 0 0 0 0 0.25 0"/>
<feBlend mode="normal" in2="BackgroundImageFix" result="effect1_dropShadow_30_3256"/>
<feBlend mode="normal" in="SourceGraphic" in2="effect1_dropShadow_30_3256" result="shape"/>
</filter>
<clipPath id="clip0_30_3256">
<rect width="160" height="55" fill="white"/>
</clipPath>
</defs>
</svg>
