<svg width="160" height="55" viewBox="0 0 160 55" fill="none" xmlns="http://www.w3.org/2000/svg">
<g clip-path="url(#clip0_263_2581)">
<rect width="160" height="55" fill="white"/>
<g filter="url(#filter0_d_263_2581)">
<rect x="3" y="4" width="154" height="48" rx="8" fill="white"/>
</g>
<path d="M37.5166 28.7536H33.2216V31.6565H38.2572V33.4634H31V22.6221H38.2572V24.429H33.2512V27.006H37.5463V28.7536H37.5166Z" fill="black"/>
<path d="M41.3974 25.3766L41.4566 26.2949C42.0194 25.584 42.7896 25.2285 43.7671 25.2285C44.6261 25.2285 45.2481 25.4655 45.6628 25.969C46.0775 26.4726 46.2848 27.2131 46.3145 28.2202V33.4335H44.1521V28.2795C44.1521 27.8352 44.0633 27.4797 43.8559 27.2724C43.6486 27.065 43.3227 26.9762 42.8784 26.9762C42.286 26.9762 41.8121 27.2427 41.5159 27.7463V33.4335H39.3535V25.3766H41.3974V25.3766Z" fill="black"/>
<path d="M50.52 23.4219V25.4065H51.8826V26.9764H50.52V31.0049C50.52 31.3011 50.5793 31.5084 50.6978 31.6565C50.8162 31.775 51.0236 31.8639 51.3494 31.8639C51.5864 31.8639 51.7937 31.8343 51.9715 31.8046V33.4338C51.5568 33.5523 51.1125 33.6411 50.6681 33.6411C49.1575 33.6411 48.3873 32.871 48.3577 31.3603V26.9764H47.1729V25.4065H48.3577V23.4219H50.52Z" fill="black"/>
<path d="M56.7996 33.5817C55.6148 33.5817 54.6669 33.2262 53.9264 32.4857C53.1859 31.7748 52.8008 30.7973 52.8008 29.5828V29.3755C52.8008 28.5757 52.9489 27.8352 53.2747 27.2131C53.6006 26.5615 54.0152 26.0875 54.6077 25.7321C55.1705 25.3766 55.8221 25.2285 56.5627 25.2285C57.6586 25.2285 58.5176 25.584 59.1693 26.2653C59.7914 26.9465 60.1172 27.9537 60.1172 29.2274V30.116H54.9927C55.052 30.6492 55.2593 31.0639 55.6148 31.3897C55.9702 31.7155 56.4146 31.8636 56.9477 31.8636C57.7771 31.8636 58.4288 31.5674 58.9027 30.975L59.9691 32.1598C59.6432 32.6042 59.1989 32.9596 58.6658 33.2262C58.0733 33.4632 57.4809 33.5817 56.7996 33.5817ZM56.5627 26.9762C56.148 26.9762 55.7925 27.1243 55.5259 27.4205C55.2593 27.7167 55.0816 28.1314 55.0224 28.6646H58.0141V28.4868C58.0141 28.0129 57.866 27.6278 57.629 27.3908C57.3624 27.0946 57.007 26.9762 56.5627 26.9762Z" fill="black"/>
<path d="M65.8641 27.3908C65.5678 27.3612 65.3013 27.3316 65.0939 27.3316C64.2941 27.3316 63.761 27.5982 63.4944 28.161V33.4335H61.332V25.3766H63.3759L63.4351 26.3245C63.8794 25.584 64.4719 25.2285 65.242 25.2285C65.479 25.2285 65.716 25.2581 65.9233 25.3174L65.8641 27.3908Z" fill="black"/>
<path d="M73.2691 23.4219V25.4065H74.6316V26.9764H73.2691V31.0049C73.2691 31.3011 73.3283 31.5084 73.4468 31.6565C73.5653 31.775 73.7726 31.8639 74.0984 31.8639C74.3354 31.8639 74.5428 31.8343 74.7205 31.8046V33.4338C74.3058 33.5523 73.8615 33.6411 73.4172 33.6411C71.9065 33.6411 71.1363 32.871 71.1067 31.3603V26.9764H69.9219V25.4065H71.1067V23.4219H73.2691Z" fill="black"/>
<path d="M79.5487 33.5817C78.3638 33.5817 77.4159 33.2262 76.6754 32.4857C75.9349 31.7748 75.5498 30.7973 75.5498 29.5828V29.3755C75.5498 28.5757 75.6979 27.8352 76.0237 27.2131C76.3496 26.5615 76.7643 26.0875 77.3567 25.7321C77.9195 25.3766 78.5712 25.2285 79.3117 25.2285C80.4077 25.2285 81.2667 25.584 81.9183 26.2653C82.5404 26.9465 82.8662 27.9537 82.8662 29.2274V30.116H77.7418C77.801 30.6492 78.0084 31.0639 78.3638 31.3897C78.7193 31.7155 79.1636 31.8636 79.6968 31.8636C80.5261 31.8636 81.1778 31.5674 81.6517 30.975L82.7181 32.1598C82.3923 32.6042 81.948 32.9596 81.4148 33.2262C80.8224 33.4632 80.2003 33.5817 79.5487 33.5817ZM79.2821 26.9762C78.8674 26.9762 78.5119 27.1243 78.2453 27.4205C77.9787 27.7167 77.801 28.1314 77.7418 28.6646H80.7335V28.4868C80.7335 28.0129 80.5854 27.6278 80.3484 27.3908C80.1115 27.0946 79.756 26.9762 79.2821 26.9762Z" fill="black"/>
<path d="M87.1317 27.7763L88.4942 25.377H90.8047L88.5239 29.3166L90.9232 33.4339H88.6127L87.1909 30.9161L85.7691 33.4339H83.3994L85.7987 29.3166L83.5179 25.377H85.8283L87.1317 27.7763Z" fill="black"/>
<path d="M94.3892 23.4219V25.4065H95.7518V26.9764H94.3892V31.0049C94.3892 31.3011 94.4484 31.5084 94.5669 31.6565C94.6854 31.775 94.8927 31.8639 95.2186 31.8639C95.4555 31.8639 95.6629 31.8343 95.8406 31.8046V33.4338C95.4259 33.5523 94.9816 33.6411 94.5373 33.6411C93.0266 33.6411 92.2565 32.871 92.2268 31.3603V26.9764H91.042V25.4065H92.2268V23.4219H94.3892Z" fill="black"/>
<path d="M102.861 26.2654C103.424 25.5842 104.135 25.2287 105.024 25.2287C106.771 25.2287 107.66 26.2358 107.689 28.2797V33.4337H105.527V28.3389C105.527 27.865 105.438 27.5391 105.231 27.3022C105.024 27.0948 104.698 26.9763 104.253 26.9763C103.631 26.9763 103.157 27.2133 102.891 27.7169V33.4337H100.729V22H102.891V26.2654H102.861Z" fill="black"/>
<path d="M112.991 33.5817C111.806 33.5817 110.858 33.2262 110.118 32.4857C109.377 31.7451 108.992 30.7973 108.992 29.5828V29.3755C108.992 28.5757 109.14 27.8352 109.466 27.2131C109.792 26.5615 110.207 26.0875 110.799 25.7321C111.362 25.3766 112.014 25.2285 112.754 25.2285C113.85 25.2285 114.709 25.584 115.361 26.2653C115.983 26.9465 116.309 27.9537 116.309 29.2274V30.116H111.184C111.243 30.6492 111.451 31.0639 111.806 31.3897C112.162 31.7155 112.606 31.8636 113.139 31.8636C113.969 31.8636 114.62 31.5674 115.094 30.975L116.16 32.1598C115.835 32.6042 115.39 32.9596 114.857 33.2262C114.265 33.4632 113.643 33.5817 112.991 33.5817ZM112.754 26.9762C112.339 26.9762 111.984 27.1243 111.717 27.4205C111.451 27.7167 111.273 28.1314 111.214 28.6646H114.205V28.4868C114.205 28.0129 114.057 27.6278 113.82 27.3908C113.583 27.1539 113.198 26.9762 112.754 26.9762Z" fill="black"/>
<path d="M122.025 27.3908C121.729 27.3612 121.462 27.3316 121.255 27.3316C120.455 27.3316 119.922 27.5982 119.655 28.161V33.4335H117.493V25.3766H119.537L119.596 26.3245C120.041 25.584 120.633 25.2285 121.403 25.2285C121.64 25.2285 121.877 25.2581 122.084 25.3174L122.025 27.3908Z" fill="black"/>
<path d="M126.646 33.5817C125.461 33.5817 124.514 33.2262 123.773 32.4857C123.033 31.7451 122.647 30.7973 122.647 29.5828V29.3755C122.647 28.5757 122.796 27.8352 123.121 27.2131C123.447 26.5615 123.862 26.0875 124.454 25.7321C125.017 25.3766 125.669 25.2285 126.409 25.2285C127.505 25.2285 128.364 25.584 129.016 26.2653C129.638 26.9465 129.964 27.9537 129.964 29.2274V30.116H124.839C124.899 30.6492 125.106 31.0639 125.461 31.3897C125.817 31.7155 126.261 31.8636 126.794 31.8636C127.624 31.8636 128.275 31.5674 128.749 30.975L129.816 32.1598C129.49 32.6042 129.046 32.9596 128.512 33.2262C127.92 33.4632 127.298 33.5817 126.646 33.5817ZM126.38 26.9762C125.965 26.9762 125.61 27.1243 125.343 27.4205C125.076 27.7167 124.899 28.1314 124.839 28.6646H127.831V28.4868C127.831 28.0129 127.683 27.6278 127.446 27.3908C127.209 27.0946 126.854 26.9762 126.38 26.9762Z" fill="black"/>
</g>
<defs>
<filter id="filter0_d_263_2581" x="-3" y="-2" width="166" height="60" filterUnits="userSpaceOnUse" color-interpolation-filters="sRGB">
<feFlood flood-opacity="0" result="BackgroundImageFix"/>
<feColorMatrix in="SourceAlpha" type="matrix" values="0 0 0 0 0 0 0 0 0 0 0 0 0 0 0 0 0 0 127 0" result="hardAlpha"/>
<feOffset/>
<feGaussianBlur stdDeviation="3"/>
<feComposite in2="hardAlpha" operator="out"/>
<feColorMatrix type="matrix" values="0 0 0 0 0 0 0 0 0 0 0 0 0 0 0 0 0 0 0.25 0"/>
<feBlend mode="normal" in2="BackgroundImageFix" result="effect1_dropShadow_263_2581"/>
<feBlend mode="normal" in="SourceGraphic" in2="effect1_dropShadow_263_2581" result="shape"/>
</filter>
<clipPath id="clip0_263_2581">
<rect width="160" height="55" fill="white"/>
</clipPath>
</defs>
</svg>
