<svg width="160" height="55" viewBox="0 0 160 55" fill="none" xmlns="http://www.w3.org/2000/svg">
<g clip-path="url(#clip0_28_3103)">
<g filter="url(#filter0_d_28_3103)">
<path d="M11.4725 3C6.88912 3 3.20001 7.01346 3.20001 11.9999V42.0401C3.20001 47.0265 6.88912 51.04 11.4725 51.04H148.528C153.111 51.04 156.8 47.0265 156.8 42.0401V11.9999C156.8 7.01346 153.111 3 148.528 3H11.4725Z" fill="white"/>
</g>
<path d="M42.2393 26.0228V27.6497C42.2393 28.429 42.1618 29.0944 42.0068 29.6458C41.8564 30.1927 41.6377 30.637 41.3506 30.9788C41.0635 31.3206 40.7194 31.5713 40.3184 31.7308C39.9219 31.8903 39.4775 31.9701 38.9854 31.9701C38.5934 31.9701 38.2288 31.9199 37.8916 31.8197C37.5589 31.7194 37.2581 31.5622 36.9893 31.348C36.7204 31.1338 36.4902 30.8581 36.2988 30.5208C36.112 30.179 35.9661 29.7712 35.8613 29.2972C35.7611 28.8232 35.7109 28.2741 35.7109 27.6497V26.0228C35.7109 25.2389 35.7884 24.5781 35.9434 24.0404C36.0983 23.498 36.3193 23.0583 36.6064 22.721C36.8936 22.3792 37.2354 22.1309 37.6318 21.9759C38.0329 21.821 38.4795 21.7435 38.9717 21.7435C39.3682 21.7435 39.7327 21.7936 40.0654 21.8939C40.4027 21.9896 40.7035 22.1423 40.9678 22.3519C41.2367 22.5615 41.4645 22.835 41.6514 23.1722C41.8428 23.5049 41.9886 23.9082 42.0889 24.3822C42.1891 24.8516 42.2393 25.3984 42.2393 26.0228ZM40.5918 27.8822V25.7767C40.5918 25.3802 40.569 25.0316 40.5234 24.7308C40.4779 24.4255 40.4095 24.168 40.3184 23.9583C40.2318 23.7441 40.1224 23.571 39.9902 23.4388C39.8581 23.3021 39.7077 23.2041 39.5391 23.1449C39.3704 23.0811 39.1813 23.0492 38.9717 23.0492C38.7165 23.0492 38.4886 23.0993 38.2881 23.1995C38.0876 23.2952 37.9189 23.4502 37.7822 23.6644C37.6455 23.8786 37.5407 24.1611 37.4678 24.512C37.3994 24.8584 37.3652 25.2799 37.3652 25.7767V27.8822C37.3652 28.2832 37.388 28.6364 37.4336 28.9417C37.4792 29.2471 37.5475 29.5091 37.6387 29.7279C37.7298 29.9421 37.8392 30.1198 37.9668 30.2611C38.099 30.3978 38.2493 30.498 38.418 30.5618C38.5911 30.6256 38.7803 30.6576 38.9854 30.6576C39.2451 30.6576 39.4753 30.6074 39.6758 30.5072C39.8763 30.4069 40.0449 30.2474 40.1816 30.0286C40.3184 29.8053 40.4209 29.5159 40.4893 29.1605C40.5576 28.805 40.5918 28.3789 40.5918 27.8822ZM45.4385 27.2054L44.126 26.8841L44.666 21.8802H50.0322V23.2747H46.0332L45.7598 25.7152C45.9147 25.624 46.1289 25.5352 46.4023 25.4486C46.6758 25.3574 46.988 25.3118 47.3389 25.3118C47.8083 25.3118 48.2275 25.3893 48.5967 25.5443C48.9704 25.6947 49.2871 25.9157 49.5469 26.2074C49.8066 26.4945 50.0049 26.8454 50.1416 27.2601C50.2783 27.6702 50.3467 28.1328 50.3467 28.6478C50.3467 29.1081 50.2783 29.5387 50.1416 29.9398C50.0094 30.3408 49.8089 30.694 49.54 30.9993C49.2712 31.3047 48.9316 31.5439 48.5215 31.7171C48.1159 31.8857 47.6351 31.9701 47.0791 31.9701C46.6644 31.9701 46.2656 31.9108 45.8828 31.7923C45.5046 31.6693 45.165 31.4893 44.8643 31.2523C44.5635 31.0107 44.3219 30.7145 44.1396 30.3636C43.9574 30.0081 43.8525 29.6003 43.8252 29.14H45.4385C45.4795 29.4635 45.5684 29.7393 45.7051 29.9671C45.8464 30.1904 46.0332 30.3613 46.2656 30.4798C46.498 30.5983 46.7669 30.6576 47.0723 30.6576C47.3503 30.6576 47.5895 30.6097 47.79 30.514C47.9906 30.4137 48.1569 30.2725 48.2891 30.0902C48.4258 29.9033 48.526 29.6846 48.5898 29.4339C48.6582 29.1833 48.6924 28.9053 48.6924 28.5999C48.6924 28.3083 48.6536 28.0417 48.5762 27.8001C48.5033 27.5586 48.3916 27.349 48.2412 27.1712C48.0954 26.9935 47.9108 26.8568 47.6875 26.7611C47.4642 26.6608 47.2067 26.6107 46.915 26.6107C46.5231 26.6107 46.2223 26.6676 46.0127 26.7816C45.8076 26.8955 45.6162 27.0368 45.4385 27.2054Z" fill="#010202"/>
<path opacity="0.4" d="M42.8538 15.7646V16.8105C42.8538 17.3115 42.804 17.7393 42.7044 18.0938C42.6077 18.4453 42.4671 18.731 42.2825 18.9507C42.098 19.1704 41.8768 19.3315 41.619 19.4341C41.3641 19.5366 41.0784 19.5879 40.762 19.5879C40.5101 19.5879 40.2757 19.5557 40.0589 19.4912C39.845 19.4268 39.6517 19.3257 39.4788 19.188C39.306 19.0503 39.158 18.873 39.035 18.6562C38.9149 18.4365 38.8211 18.1743 38.7537 17.8696C38.6893 17.5649 38.657 17.2119 38.657 16.8105V15.7646C38.657 15.2607 38.7068 14.8359 38.8065 14.4902C38.9061 14.1416 39.0482 13.8589 39.2327 13.6421C39.4173 13.4224 39.637 13.2627 39.8919 13.1631C40.1497 13.0635 40.4368 13.0137 40.7532 13.0137C41.0081 13.0137 41.2425 13.0459 41.4564 13.1104C41.6732 13.1719 41.8665 13.27 42.0364 13.4048C42.2093 13.5396 42.3558 13.7153 42.4759 13.9321C42.5989 14.146 42.6927 14.4053 42.7571 14.71C42.8216 15.0117 42.8538 15.3633 42.8538 15.7646ZM41.7947 16.96V15.6064C41.7947 15.3516 41.7801 15.1274 41.7508 14.9341C41.7215 14.7378 41.6776 14.5723 41.619 14.4375C41.5633 14.2998 41.493 14.1885 41.408 14.1035C41.3231 14.0156 41.2264 13.9526 41.118 13.9146C41.0096 13.8735 40.888 13.853 40.7532 13.853C40.5892 13.853 40.4427 13.8853 40.3138 13.9497C40.1849 14.0112 40.0765 14.1108 39.9886 14.2485C39.9007 14.3862 39.8333 14.5679 39.7864 14.7935C39.7425 15.0161 39.7205 15.2871 39.7205 15.6064V16.96C39.7205 17.2178 39.7352 17.4448 39.7645 17.6411C39.7938 17.8374 39.8377 18.0059 39.8963 18.1465C39.9549 18.2842 40.0252 18.3984 40.1072 18.4893C40.1922 18.5771 40.2889 18.6416 40.3973 18.6826C40.5086 18.7236 40.6302 18.7441 40.762 18.7441C40.929 18.7441 41.077 18.7119 41.2059 18.6475C41.3348 18.583 41.4432 18.4805 41.5311 18.3398C41.619 18.1963 41.6849 18.0103 41.7288 17.7817C41.7728 17.5532 41.7947 17.2793 41.7947 16.96ZM48.2064 17.2192V18.063H43.5921L43.5569 17.4258L46.3167 13.1016H47.1649L46.2464 14.6748L44.66 17.2192H48.2064ZM47.4066 13.1016V19.5H46.3475V13.1016H47.4066Z" fill="#010202"/>
<path opacity="0.1" d="M42.8043 7.11523V7.87402C42.8043 8.2819 42.7678 8.62598 42.6949 8.90625C42.622 9.18652 42.5172 9.41211 42.3804 9.58301C42.2437 9.75391 42.0785 9.87809 41.8848 9.95557C41.6934 10.0308 41.4769 10.0684 41.2354 10.0684C41.044 10.0684 40.8674 10.0444 40.7056 9.99658C40.5438 9.94873 40.398 9.8724 40.2681 9.76758C40.1405 9.66048 40.0311 9.52148 39.94 9.35059C39.8489 9.17969 39.7794 8.97233 39.7315 8.72852C39.6837 8.4847 39.6597 8.19987 39.6597 7.87402V7.11523C39.6597 6.70736 39.6962 6.36556 39.7691 6.08984C39.8443 5.81413 39.9503 5.5931 40.087 5.42676C40.2237 5.25814 40.3878 5.13737 40.5792 5.06445C40.7728 4.99154 40.9893 4.95508 41.2286 4.95508C41.4223 4.95508 41.6 4.979 41.7618 5.02686C41.9258 5.07243 42.0717 5.14648 42.1993 5.24902C42.3269 5.34928 42.4351 5.48372 42.524 5.65234C42.6151 5.81868 42.6846 6.02262 42.7325 6.26416C42.7803 6.5057 42.8043 6.78939 42.8043 7.11523ZM42.1685 7.97656V7.00928C42.1685 6.78597 42.1548 6.59001 42.1275 6.42139C42.1024 6.25049 42.0648 6.10465 42.0147 5.98389C41.9646 5.86312 41.9008 5.76514 41.8233 5.68994C41.7481 5.61475 41.6604 5.56006 41.5601 5.52588C41.4621 5.48942 41.3516 5.47119 41.2286 5.47119C41.0782 5.47119 40.9449 5.49967 40.8287 5.55664C40.7125 5.61133 40.6145 5.69906 40.5347 5.81982C40.4573 5.94059 40.398 6.09896 40.357 6.29492C40.316 6.49089 40.2955 6.729 40.2955 7.00928V7.97656C40.2955 8.19987 40.308 8.39697 40.3331 8.56787C40.3604 8.73877 40.4003 8.88688 40.4527 9.01221C40.5051 9.13525 40.5689 9.23665 40.6441 9.31641C40.7193 9.39616 40.8059 9.4554 40.9039 9.49414C41.0041 9.5306 41.1146 9.54883 41.2354 9.54883C41.3904 9.54883 41.5259 9.51921 41.6422 9.45996C41.7584 9.40072 41.8552 9.30843 41.9327 9.18311C42.0124 9.0555 42.0717 8.89258 42.1104 8.69434C42.1491 8.49382 42.1685 8.25456 42.1685 7.97656ZM44.5406 7.20068H44.9918C45.2128 7.20068 45.3951 7.16423 45.5386 7.09131C45.6845 7.01611 45.7927 6.91471 45.8633 6.78711C45.9363 6.65723 45.9727 6.51139 45.9727 6.34961C45.9727 6.1582 45.9408 5.99756 45.877 5.86768C45.8132 5.73779 45.7175 5.63981 45.5899 5.57373C45.4623 5.50765 45.3005 5.47461 45.1046 5.47461C44.9268 5.47461 44.7696 5.50993 44.6329 5.58057C44.4984 5.64893 44.3925 5.74691 44.315 5.87451C44.2398 6.00212 44.2022 6.15251 44.2022 6.32568H43.5699C43.5699 6.07275 43.6337 5.84261 43.7613 5.63525C43.8889 5.4279 44.0678 5.2627 44.2979 5.13965C44.5303 5.0166 44.7992 4.95508 45.1046 4.95508C45.4053 4.95508 45.6685 5.00863 45.8941 5.11572C46.1197 5.22054 46.2951 5.37777 46.4205 5.5874C46.5458 5.79476 46.6085 6.05339 46.6085 6.36328C46.6085 6.48861 46.5788 6.62305 46.5196 6.7666C46.4626 6.90788 46.3726 7.04004 46.2496 7.16309C46.1288 7.28613 45.9716 7.38753 45.7779 7.46729C45.5842 7.54476 45.3518 7.5835 45.0806 7.5835H44.5406V7.20068ZM44.5406 7.72021V7.34082H45.0806C45.3974 7.34082 45.6594 7.37842 45.8668 7.45361C46.0741 7.52881 46.237 7.62907 46.3555 7.75439C46.4763 7.87972 46.5606 8.01758 46.6085 8.16797C46.6586 8.31608 46.6837 8.46419 46.6837 8.6123C46.6837 8.84473 46.6438 9.05094 46.564 9.23096C46.4866 9.41097 46.376 9.56364 46.2325 9.68896C46.0912 9.81429 45.9249 9.90885 45.7335 9.97266C45.5421 10.0365 45.3336 10.0684 45.108 10.0684C44.8915 10.0684 44.6876 10.0376 44.4962 9.97607C44.307 9.91455 44.1395 9.82568 43.9937 9.70947C43.8479 9.59098 43.7339 9.44629 43.6519 9.27539C43.5699 9.10221 43.5289 8.90511 43.5289 8.68408H44.1612C44.1612 8.85726 44.1988 9.00879 44.274 9.13867C44.3515 9.26855 44.4608 9.36995 44.6021 9.44287C44.7457 9.51351 44.9143 9.54883 45.108 9.54883C45.3017 9.54883 45.468 9.51579 45.607 9.44971C45.7483 9.38135 45.8565 9.27881 45.9317 9.14209C46.0092 9.00537 46.0479 8.83333 46.0479 8.62598C46.0479 8.41862 46.0046 8.24886 45.918 8.1167C45.8314 7.98226 45.7084 7.88314 45.5489 7.81934C45.3917 7.75326 45.206 7.72021 44.9918 7.72021H44.5406Z" fill="#010202"/>
<path opacity="0.4" d="M42.8538 37.9313V38.9772C42.8538 39.4782 42.804 39.9059 42.7044 40.2604C42.6077 40.612 42.4671 40.8976 42.2825 41.1173C42.098 41.3371 41.8768 41.4982 41.619 41.6007C41.3641 41.7033 41.0784 41.7546 40.762 41.7546C40.5101 41.7546 40.2757 41.7223 40.0589 41.6579C39.845 41.5934 39.6517 41.4923 39.4788 41.3547C39.306 41.217 39.158 41.0397 39.035 40.8229C38.9149 40.6032 38.8211 40.341 38.7537 40.0363C38.6893 39.7316 38.657 39.3786 38.657 38.9772V37.9313C38.657 37.4274 38.7068 37.0026 38.8065 36.6569C38.9061 36.3083 39.0482 36.0256 39.2327 35.8088C39.4173 35.589 39.637 35.4294 39.8919 35.3298C40.1497 35.2301 40.4368 35.1803 40.7532 35.1803C41.0081 35.1803 41.2425 35.2126 41.4564 35.277C41.6732 35.3385 41.8665 35.4367 42.0364 35.5714C42.2093 35.7062 42.3558 35.882 42.4759 36.0988C42.5989 36.3127 42.6927 36.5719 42.7571 36.8766C42.8216 37.1784 42.8538 37.5299 42.8538 37.9313ZM41.7947 39.1266V37.7731C41.7947 37.5182 41.7801 37.2941 41.7508 37.1007C41.7215 36.9045 41.6776 36.7389 41.619 36.6042C41.5633 36.4665 41.493 36.3551 41.408 36.2702C41.3231 36.1823 41.2264 36.1193 41.118 36.0812C41.0096 36.0402 40.888 36.0197 40.7532 36.0197C40.5892 36.0197 40.4427 36.0519 40.3138 36.1164C40.1849 36.1779 40.0765 36.2775 39.9886 36.4152C39.9007 36.5529 39.8333 36.7345 39.7864 36.9601C39.7425 37.1828 39.7205 37.4538 39.7205 37.7731V39.1266C39.7205 39.3844 39.7352 39.6115 39.7645 39.8078C39.7938 40.0041 39.8377 40.1725 39.8963 40.3131C39.9549 40.4508 40.0252 40.5651 40.1072 40.6559C40.1922 40.7438 40.2889 40.8083 40.3973 40.8493C40.5086 40.8903 40.6302 40.9108 40.762 40.9108C40.929 40.9108 41.077 40.8786 41.2059 40.8141C41.3348 40.7497 41.4432 40.6471 41.5311 40.5065C41.619 40.363 41.6849 40.1769 41.7288 39.9484C41.7728 39.7199 41.7947 39.446 41.7947 39.1266ZM46.9979 35.2287H47.1297V36.0944H47.055C46.6771 36.0944 46.3504 36.153 46.075 36.2702C45.8026 36.3874 45.5784 36.5485 45.4026 36.7536C45.2269 36.9587 45.095 37.1989 45.0071 37.4743C44.9222 37.7467 44.8797 38.0368 44.8797 38.3444V39.3507C44.8797 39.6056 44.9075 39.8312 44.9632 40.0275C45.0189 40.2209 45.0965 40.3835 45.1961 40.5153C45.2986 40.6442 45.4158 40.7423 45.5477 40.8097C45.6795 40.8771 45.8216 40.9108 45.9739 40.9108C46.1321 40.9108 46.2757 40.8786 46.4046 40.8141C46.5335 40.7467 46.6434 40.6545 46.7342 40.5373C46.825 40.4201 46.8939 40.2809 46.9407 40.1198C46.9876 39.9587 47.011 39.7829 47.011 39.5924C47.011 39.4108 46.9876 39.2409 46.9407 39.0827C46.8968 38.9215 46.8309 38.7809 46.743 38.6608C46.6551 38.5378 46.5452 38.4425 46.4134 38.3752C46.2845 38.3048 46.1351 38.2697 45.9651 38.2697C45.7542 38.2697 45.5623 38.3195 45.3895 38.4191C45.2195 38.5187 45.0818 38.6491 44.9764 38.8102C44.8738 38.9684 44.8182 39.1369 44.8094 39.3156L44.4051 39.1838C44.4285 38.9113 44.4886 38.6667 44.5853 38.4499C44.6849 38.2331 44.8152 38.0485 44.9764 37.8962C45.1375 37.7438 45.3235 37.6281 45.5345 37.549C45.7484 37.467 45.9827 37.4259 46.2376 37.4259C46.5482 37.4259 46.8177 37.4845 47.0462 37.6017C47.2747 37.7189 47.4637 37.8786 47.6131 38.0807C47.7654 38.2799 47.8782 38.5085 47.9515 38.7663C48.0276 39.0212 48.0657 39.2878 48.0657 39.5661C48.0657 39.8737 48.0189 40.1608 47.9251 40.4274C47.8314 40.6911 47.6937 40.9225 47.512 41.1217C47.3333 41.321 47.1151 41.4762 46.8572 41.5876C46.6024 41.6989 46.3123 41.7546 45.9871 41.7546C45.6443 41.7546 45.3382 41.6886 45.0687 41.5568C44.8021 41.425 44.575 41.2433 44.3875 41.0119C44.2029 40.7804 44.0623 40.5138 43.9656 40.2121C43.869 39.9103 43.8206 39.591 43.8206 39.2541V38.8146C43.8206 38.3283 43.8821 37.8698 44.0052 37.4391C44.1282 37.0055 44.3172 36.6232 44.5721 36.2922C44.8299 35.9611 45.1595 35.7018 45.5609 35.5143C45.9622 35.3239 46.4412 35.2287 46.9979 35.2287Z" fill="#010202"/>
<path opacity="0.1" d="M42.8043 46.8652V47.624C42.8043 48.0319 42.7678 48.376 42.6949 48.6562C42.622 48.9365 42.5172 49.1621 42.3804 49.333C42.2437 49.5039 42.0785 49.6281 41.8848 49.7056C41.6934 49.7808 41.4769 49.8184 41.2354 49.8184C41.044 49.8184 40.8674 49.7944 40.7056 49.7466C40.5438 49.6987 40.398 49.6224 40.2681 49.5176C40.1405 49.4105 40.0311 49.2715 39.94 49.1006C39.8489 48.9297 39.7794 48.7223 39.7315 48.4785C39.6837 48.2347 39.6597 47.9499 39.6597 47.624V46.8652C39.6597 46.4574 39.6962 46.1156 39.7691 45.8398C39.8443 45.5641 39.9503 45.3431 40.087 45.1768C40.2237 45.0081 40.3878 44.8874 40.5792 44.8144C40.7728 44.7415 40.9893 44.7051 41.2286 44.7051C41.4223 44.7051 41.6 44.729 41.7618 44.7769C41.9258 44.8224 42.0717 44.8965 42.1993 44.999C42.3269 45.0993 42.4351 45.2337 42.524 45.4023C42.6151 45.5687 42.6846 45.7726 42.7325 46.0142C42.7803 46.2557 42.8043 46.5394 42.8043 46.8652ZM42.1685 47.7266V46.7593C42.1685 46.536 42.1548 46.34 42.1275 46.1714C42.1024 46.0005 42.0648 45.8547 42.0147 45.7339C41.9646 45.6131 41.9008 45.5151 41.8233 45.4399C41.7481 45.3647 41.6604 45.3101 41.5601 45.2759C41.4621 45.2394 41.3516 45.2212 41.2286 45.2212C41.0782 45.2212 40.9449 45.2497 40.8287 45.3066C40.7125 45.3613 40.6145 45.4491 40.5347 45.5698C40.4573 45.6906 40.398 45.849 40.357 46.0449C40.316 46.2409 40.2955 46.479 40.2955 46.7593V47.7266C40.2955 47.9499 40.308 48.147 40.3331 48.3179C40.3604 48.4888 40.4003 48.6369 40.4527 48.7622C40.5051 48.8853 40.5689 48.9866 40.6441 49.0664C40.7193 49.1462 40.8059 49.2054 40.9039 49.2441C41.0041 49.2806 41.1146 49.2988 41.2354 49.2988C41.3904 49.2988 41.5259 49.2692 41.6422 49.21C41.7584 49.1507 41.8552 49.0584 41.9327 48.9331C42.0124 48.8055 42.0717 48.6426 42.1104 48.4443C42.1491 48.2438 42.1685 48.0046 42.1685 47.7266ZM46.834 44.7734V45.1289L44.773 49.75H44.1065L46.1641 45.293H43.4708V44.7734H46.834Z" fill="#010202"/>
<path d="M117.239 26.0228V27.6497C117.239 28.429 117.162 29.0944 117.007 29.6458C116.856 30.1927 116.638 30.637 116.351 30.9788C116.063 31.3206 115.719 31.5713 115.318 31.7308C114.922 31.8903 114.478 31.9701 113.985 31.9701C113.593 31.9701 113.229 31.9199 112.892 31.8197C112.559 31.7194 112.258 31.5622 111.989 31.348C111.72 31.1338 111.49 30.8581 111.299 30.5208C111.112 30.179 110.966 29.7712 110.861 29.2972C110.761 28.8232 110.711 28.2741 110.711 27.6497V26.0228C110.711 25.2389 110.788 24.5781 110.943 24.0404C111.098 23.498 111.319 23.0583 111.606 22.721C111.894 22.3792 112.235 22.1309 112.632 21.9759C113.033 21.821 113.479 21.7435 113.972 21.7435C114.368 21.7435 114.733 21.7936 115.065 21.8939C115.403 21.9896 115.703 22.1423 115.968 22.3519C116.237 22.5615 116.465 22.835 116.651 23.1722C116.843 23.5049 116.989 23.9082 117.089 24.3822C117.189 24.8516 117.239 25.3984 117.239 26.0228ZM115.592 27.8822V25.7767C115.592 25.3802 115.569 25.0316 115.523 24.7308C115.478 24.4255 115.41 24.168 115.318 23.9583C115.232 23.7441 115.122 23.571 114.99 23.4388C114.858 23.3021 114.708 23.2041 114.539 23.1449C114.37 23.0811 114.181 23.0492 113.972 23.0492C113.716 23.0492 113.489 23.0993 113.288 23.1995C113.088 23.2952 112.919 23.4502 112.782 23.6644C112.646 23.8786 112.541 24.1611 112.468 24.512C112.399 24.8584 112.365 25.2799 112.365 25.7767V27.8822C112.365 28.2832 112.388 28.6364 112.434 28.9417C112.479 29.2471 112.548 29.5091 112.639 29.7279C112.73 29.9421 112.839 30.1198 112.967 30.2611C113.099 30.3978 113.249 30.498 113.418 30.5618C113.591 30.6256 113.78 30.6576 113.985 30.6576C114.245 30.6576 114.475 30.6074 114.676 30.5072C114.876 30.4069 115.045 30.2474 115.182 30.0286C115.318 29.8053 115.421 29.5159 115.489 29.1605C115.558 28.805 115.592 28.3789 115.592 27.8822ZM120.438 27.2054L119.126 26.8841L119.666 21.8802H125.032V23.2747H121.033L120.76 25.7152C120.915 25.624 121.129 25.5352 121.402 25.4486C121.676 25.3574 121.988 25.3118 122.339 25.3118C122.808 25.3118 123.228 25.3893 123.597 25.5443C123.97 25.6947 124.287 25.9157 124.547 26.2074C124.807 26.4945 125.005 26.8454 125.142 27.2601C125.278 27.6702 125.347 28.1328 125.347 28.6478C125.347 29.1081 125.278 29.5387 125.142 29.9398C125.009 30.3408 124.809 30.694 124.54 30.9993C124.271 31.3047 123.932 31.5439 123.521 31.7171C123.116 31.8857 122.635 31.9701 122.079 31.9701C121.664 31.9701 121.266 31.9108 120.883 31.7923C120.505 31.6693 120.165 31.4893 119.864 31.2523C119.563 31.0107 119.322 30.7145 119.14 30.3636C118.957 30.0081 118.853 29.6003 118.825 29.14H120.438C120.479 29.4635 120.568 29.7393 120.705 29.9671C120.846 30.1904 121.033 30.3613 121.266 30.4798C121.498 30.5983 121.767 30.6576 122.072 30.6576C122.35 30.6576 122.59 30.6097 122.79 30.514C122.991 30.4137 123.157 30.2725 123.289 30.0902C123.426 29.9033 123.526 29.6846 123.59 29.4339C123.658 29.1833 123.692 28.9053 123.692 28.5999C123.692 28.3083 123.654 28.0417 123.576 27.8001C123.503 27.5586 123.392 27.349 123.241 27.1712C123.095 26.9935 122.911 26.8568 122.688 26.7611C122.464 26.6608 122.207 26.6107 121.915 26.6107C121.523 26.6107 121.222 26.6676 121.013 26.7816C120.808 26.8955 120.616 27.0368 120.438 27.2054Z" fill="#010202"/>
<path opacity="0.4" d="M117.854 15.7646V16.8105C117.854 17.3115 117.804 17.7393 117.704 18.0938C117.608 18.4453 117.467 18.731 117.283 18.9507C117.098 19.1704 116.877 19.3315 116.619 19.4341C116.364 19.5366 116.078 19.5879 115.762 19.5879C115.51 19.5879 115.276 19.5557 115.059 19.4912C114.845 19.4268 114.652 19.3257 114.479 19.188C114.306 19.0503 114.158 18.873 114.035 18.6562C113.915 18.4365 113.821 18.1743 113.754 17.8696C113.689 17.5649 113.657 17.2119 113.657 16.8105V15.7646C113.657 15.2607 113.707 14.8359 113.806 14.4902C113.906 14.1416 114.048 13.8589 114.233 13.6421C114.417 13.4224 114.637 13.2627 114.892 13.1631C115.15 13.0635 115.437 13.0137 115.753 13.0137C116.008 13.0137 116.242 13.0459 116.456 13.1104C116.673 13.1719 116.867 13.27 117.036 13.4048C117.209 13.5396 117.356 13.7153 117.476 13.9321C117.599 14.146 117.693 14.4053 117.757 14.71C117.822 15.0117 117.854 15.3633 117.854 15.7646ZM116.795 16.96V15.6064C116.795 15.3516 116.78 15.1274 116.751 14.9341C116.721 14.7378 116.678 14.5723 116.619 14.4375C116.563 14.2998 116.493 14.1885 116.408 14.1035C116.323 14.0156 116.226 13.9526 116.118 13.9146C116.01 13.8735 115.888 13.853 115.753 13.853C115.589 13.853 115.443 13.8853 115.314 13.9497C115.185 14.0112 115.076 14.1108 114.989 14.2485C114.901 14.3862 114.833 14.5679 114.786 14.7935C114.742 15.0161 114.721 15.2871 114.721 15.6064V16.96C114.721 17.2178 114.735 17.4448 114.764 17.6411C114.794 17.8374 114.838 18.0059 114.896 18.1465C114.955 18.2842 115.025 18.3984 115.107 18.4893C115.192 18.5771 115.289 18.6416 115.397 18.6826C115.509 18.7236 115.63 18.7441 115.762 18.7441C115.929 18.7441 116.077 18.7119 116.206 18.6475C116.335 18.583 116.443 18.4805 116.531 18.3398C116.619 18.1963 116.685 18.0103 116.729 17.7817C116.773 17.5532 116.795 17.2793 116.795 16.96ZM123.206 17.2192V18.063H118.592L118.557 17.4258L121.317 13.1016H122.165L121.246 14.6748L119.66 17.2192H123.206ZM122.407 13.1016V19.5H121.347V13.1016H122.407Z" fill="#010202"/>
<path opacity="0.1" d="M117.804 7.11523V7.87402C117.804 8.2819 117.768 8.62598 117.695 8.90625C117.622 9.18652 117.517 9.41211 117.38 9.58301C117.244 9.75391 117.079 9.87809 116.885 9.95557C116.693 10.0308 116.477 10.0684 116.235 10.0684C116.044 10.0684 115.867 10.0444 115.706 9.99658C115.544 9.94873 115.398 9.8724 115.268 9.76758C115.141 9.66048 115.031 9.52148 114.94 9.35059C114.849 9.17969 114.779 8.97233 114.732 8.72852C114.684 8.4847 114.66 8.19987 114.66 7.87402V7.11523C114.66 6.70736 114.696 6.36556 114.769 6.08984C114.844 5.81413 114.95 5.5931 115.087 5.42676C115.224 5.25814 115.388 5.13737 115.579 5.06445C115.773 4.99154 115.989 4.95508 116.229 4.95508C116.422 4.95508 116.6 4.979 116.762 5.02686C116.926 5.07243 117.072 5.14648 117.199 5.24902C117.327 5.34928 117.435 5.48372 117.524 5.65234C117.615 5.81868 117.685 6.02262 117.732 6.26416C117.78 6.5057 117.804 6.78939 117.804 7.11523ZM117.169 7.97656V7.00928C117.169 6.78597 117.155 6.59001 117.128 6.42139C117.102 6.25049 117.065 6.10465 117.015 5.98389C116.965 5.86312 116.901 5.76514 116.823 5.68994C116.748 5.61475 116.66 5.56006 116.56 5.52588C116.462 5.48942 116.352 5.47119 116.229 5.47119C116.078 5.47119 115.945 5.49967 115.829 5.55664C115.712 5.61133 115.614 5.69906 115.535 5.81982C115.457 5.94059 115.398 6.09896 115.357 6.29492C115.316 6.49089 115.295 6.729 115.295 7.00928V7.97656C115.295 8.19987 115.308 8.39697 115.333 8.56787C115.36 8.73877 115.4 8.88688 115.453 9.01221C115.505 9.13525 115.569 9.23665 115.644 9.31641C115.719 9.39616 115.806 9.4554 115.904 9.49414C116.004 9.5306 116.115 9.54883 116.235 9.54883C116.39 9.54883 116.526 9.51921 116.642 9.45996C116.758 9.40072 116.855 9.30843 116.933 9.18311C117.012 9.0555 117.072 8.89258 117.11 8.69434C117.149 8.49382 117.169 8.25456 117.169 7.97656ZM119.541 7.20068H119.992C120.213 7.20068 120.395 7.16423 120.539 7.09131C120.684 7.01611 120.793 6.91471 120.863 6.78711C120.936 6.65723 120.973 6.51139 120.973 6.34961C120.973 6.1582 120.941 5.99756 120.877 5.86768C120.813 5.73779 120.718 5.63981 120.59 5.57373C120.462 5.50765 120.301 5.47461 120.105 5.47461C119.927 5.47461 119.77 5.50993 119.633 5.58057C119.498 5.64893 119.392 5.74691 119.315 5.87451C119.24 6.00212 119.202 6.15251 119.202 6.32568H118.57C118.57 6.07275 118.634 5.84261 118.761 5.63525C118.889 5.4279 119.068 5.2627 119.298 5.13965C119.53 5.0166 119.799 4.95508 120.105 4.95508C120.405 4.95508 120.669 5.00863 120.894 5.11572C121.12 5.22054 121.295 5.37777 121.42 5.5874C121.546 5.79476 121.608 6.05339 121.608 6.36328C121.608 6.48861 121.579 6.62305 121.52 6.7666C121.463 6.90788 121.373 7.04004 121.25 7.16309C121.129 7.28613 120.972 7.38753 120.778 7.46729C120.584 7.54476 120.352 7.5835 120.081 7.5835H119.541V7.20068ZM119.541 7.72021V7.34082H120.081C120.397 7.34082 120.659 7.37842 120.867 7.45361C121.074 7.52881 121.237 7.62907 121.356 7.75439C121.476 7.87972 121.561 8.01758 121.608 8.16797C121.659 8.31608 121.684 8.46419 121.684 8.6123C121.684 8.84473 121.644 9.05094 121.564 9.23096C121.487 9.41097 121.376 9.56364 121.232 9.68896C121.091 9.81429 120.925 9.90885 120.733 9.97266C120.542 10.0365 120.334 10.0684 120.108 10.0684C119.891 10.0684 119.688 10.0376 119.496 9.97607C119.307 9.91455 119.14 9.82568 118.994 9.70947C118.848 9.59098 118.734 9.44629 118.652 9.27539C118.57 9.10221 118.529 8.90511 118.529 8.68408H119.161C119.161 8.85726 119.199 9.00879 119.274 9.13867C119.351 9.26855 119.461 9.36995 119.602 9.44287C119.746 9.51351 119.914 9.54883 120.108 9.54883C120.302 9.54883 120.468 9.51579 120.607 9.44971C120.748 9.38135 120.857 9.27881 120.932 9.14209C121.009 9.00537 121.048 8.83333 121.048 8.62598C121.048 8.41862 121.005 8.24886 120.918 8.1167C120.831 7.98226 120.708 7.88314 120.549 7.81934C120.392 7.75326 120.206 7.72021 119.992 7.72021H119.541Z" fill="#010202"/>
<path opacity="0.4" d="M117.854 37.9313V38.9772C117.854 39.4782 117.804 39.9059 117.704 40.2604C117.608 40.612 117.467 40.8976 117.283 41.1173C117.098 41.3371 116.877 41.4982 116.619 41.6007C116.364 41.7033 116.078 41.7546 115.762 41.7546C115.51 41.7546 115.276 41.7223 115.059 41.6579C114.845 41.5934 114.652 41.4923 114.479 41.3547C114.306 41.217 114.158 41.0397 114.035 40.8229C113.915 40.6032 113.821 40.341 113.754 40.0363C113.689 39.7316 113.657 39.3786 113.657 38.9772V37.9313C113.657 37.4274 113.707 37.0026 113.806 36.6569C113.906 36.3083 114.048 36.0256 114.233 35.8088C114.417 35.589 114.637 35.4294 114.892 35.3298C115.15 35.2301 115.437 35.1803 115.753 35.1803C116.008 35.1803 116.242 35.2126 116.456 35.277C116.673 35.3385 116.867 35.4367 117.036 35.5714C117.209 35.7062 117.356 35.882 117.476 36.0988C117.599 36.3127 117.693 36.5719 117.757 36.8766C117.822 37.1784 117.854 37.5299 117.854 37.9313ZM116.795 39.1266V37.7731C116.795 37.5182 116.78 37.2941 116.751 37.1007C116.721 36.9045 116.678 36.7389 116.619 36.6042C116.563 36.4665 116.493 36.3551 116.408 36.2702C116.323 36.1823 116.226 36.1193 116.118 36.0812C116.01 36.0402 115.888 36.0197 115.753 36.0197C115.589 36.0197 115.443 36.0519 115.314 36.1164C115.185 36.1779 115.076 36.2775 114.989 36.4152C114.901 36.5529 114.833 36.7345 114.786 36.9601C114.742 37.1828 114.721 37.4538 114.721 37.7731V39.1266C114.721 39.3844 114.735 39.6115 114.764 39.8078C114.794 40.0041 114.838 40.1725 114.896 40.3131C114.955 40.4508 115.025 40.5651 115.107 40.6559C115.192 40.7438 115.289 40.8083 115.397 40.8493C115.509 40.8903 115.63 40.9108 115.762 40.9108C115.929 40.9108 116.077 40.8786 116.206 40.8141C116.335 40.7497 116.443 40.6471 116.531 40.5065C116.619 40.363 116.685 40.1769 116.729 39.9484C116.773 39.7199 116.795 39.446 116.795 39.1266ZM121.998 35.2287H122.13V36.0944H122.055C121.677 36.0944 121.35 36.153 121.075 36.2702C120.803 36.3874 120.578 36.5485 120.403 36.7536C120.227 36.9587 120.095 37.1989 120.007 37.4743C119.922 37.7467 119.88 38.0368 119.88 38.3444V39.3507C119.88 39.6056 119.908 39.8312 119.963 40.0275C120.019 40.2209 120.096 40.3835 120.196 40.5153C120.299 40.6442 120.416 40.7423 120.548 40.8097C120.68 40.8771 120.822 40.9108 120.974 40.9108C121.132 40.9108 121.276 40.8786 121.405 40.8141C121.534 40.7467 121.643 40.6545 121.734 40.5373C121.825 40.4201 121.894 40.2809 121.941 40.1198C121.988 39.9587 122.011 39.7829 122.011 39.5924C122.011 39.4108 121.988 39.2409 121.941 39.0827C121.897 38.9215 121.831 38.7809 121.743 38.6608C121.655 38.5378 121.545 38.4425 121.413 38.3752C121.284 38.3048 121.135 38.2697 120.965 38.2697C120.754 38.2697 120.562 38.3195 120.389 38.4191C120.22 38.5187 120.082 38.6491 119.976 38.8102C119.874 38.9684 119.818 39.1369 119.809 39.3156L119.405 39.1838C119.429 38.9113 119.489 38.6667 119.585 38.4499C119.685 38.2331 119.815 38.0485 119.976 37.8962C120.138 37.7438 120.324 37.6281 120.534 37.549C120.748 37.467 120.983 37.4259 121.238 37.4259C121.548 37.4259 121.818 37.4845 122.046 37.6017C122.275 37.7189 122.464 37.8786 122.613 38.0807C122.765 38.2799 122.878 38.5085 122.951 38.7663C123.028 39.0212 123.066 39.2878 123.066 39.5661C123.066 39.8737 123.019 40.1608 122.925 40.4274C122.831 40.6911 122.694 40.9225 122.512 41.1217C122.333 41.321 122.115 41.4762 121.857 41.5876C121.602 41.6989 121.312 41.7546 120.987 41.7546C120.644 41.7546 120.338 41.6886 120.069 41.5568C119.802 41.425 119.575 41.2433 119.388 41.0119C119.203 40.7804 119.062 40.5138 118.966 40.2121C118.869 39.9103 118.821 39.591 118.821 39.2541V38.8146C118.821 38.3283 118.882 37.8698 119.005 37.4391C119.128 37.0055 119.317 36.6232 119.572 36.2922C119.83 35.9611 120.159 35.7018 120.561 35.5143C120.962 35.3239 121.441 35.2287 121.998 35.2287Z" fill="#010202"/>
<path opacity="0.1" d="M117.804 46.8652V47.624C117.804 48.0319 117.768 48.376 117.695 48.6562C117.622 48.9365 117.517 49.1621 117.38 49.333C117.244 49.5039 117.079 49.6281 116.885 49.7056C116.693 49.7808 116.477 49.8184 116.235 49.8184C116.044 49.8184 115.867 49.7944 115.706 49.7466C115.544 49.6987 115.398 49.6224 115.268 49.5176C115.141 49.4105 115.031 49.2715 114.94 49.1006C114.849 48.9297 114.779 48.7223 114.732 48.4785C114.684 48.2347 114.66 47.9499 114.66 47.624V46.8652C114.66 46.4574 114.696 46.1156 114.769 45.8398C114.844 45.5641 114.95 45.3431 115.087 45.1768C115.224 45.0081 115.388 44.8874 115.579 44.8144C115.773 44.7415 115.989 44.7051 116.229 44.7051C116.422 44.7051 116.6 44.729 116.762 44.7769C116.926 44.8224 117.072 44.8965 117.199 44.999C117.327 45.0993 117.435 45.2337 117.524 45.4023C117.615 45.5687 117.685 45.7726 117.732 46.0142C117.78 46.2557 117.804 46.5394 117.804 46.8652ZM117.169 47.7266V46.7593C117.169 46.536 117.155 46.34 117.128 46.1714C117.102 46.0005 117.065 45.8547 117.015 45.7339C116.965 45.6131 116.901 45.5151 116.823 45.4399C116.748 45.3647 116.66 45.3101 116.56 45.2759C116.462 45.2394 116.352 45.2212 116.229 45.2212C116.078 45.2212 115.945 45.2497 115.829 45.3066C115.712 45.3613 115.614 45.4491 115.535 45.5698C115.457 45.6906 115.398 45.849 115.357 46.0449C115.316 46.2409 115.295 46.479 115.295 46.7593V47.7266C115.295 47.9499 115.308 48.147 115.333 48.3179C115.36 48.4888 115.4 48.6369 115.453 48.7622C115.505 48.8853 115.569 48.9866 115.644 49.0664C115.719 49.1462 115.806 49.2054 115.904 49.2441C116.004 49.2806 116.115 49.2988 116.235 49.2988C116.39 49.2988 116.526 49.2692 116.642 49.21C116.758 49.1507 116.855 49.0584 116.933 48.9331C117.012 48.8055 117.072 48.6426 117.11 48.4443C117.149 48.2438 117.169 48.0046 117.169 47.7266ZM121.834 44.7734V45.1289L119.773 49.75H119.107L121.164 45.293H118.471V44.7734H121.834Z" fill="#010202"/>
<path d="M81 3L81 51" stroke="#BFBEBF" stroke-width="0.206"/>
</g>
<defs>
<filter id="filter0_d_28_3103" x="-1.79999" y="-2" width="163.6" height="58.04" filterUnits="userSpaceOnUse" color-interpolation-filters="sRGB">
<feFlood flood-opacity="0" result="BackgroundImageFix"/>
<feColorMatrix in="SourceAlpha" type="matrix" values="0 0 0 0 0 0 0 0 0 0 0 0 0 0 0 0 0 0 127 0" result="hardAlpha"/>
<feOffset/>
<feGaussianBlur stdDeviation="2.5"/>
<feComposite in2="hardAlpha" operator="out"/>
<feColorMatrix type="matrix" values="0 0 0 0 0 0 0 0 0 0 0 0 0 0 0 0 0 0 0.25 0"/>
<feBlend mode="normal" in2="BackgroundImageFix" result="effect1_dropShadow_28_3103"/>
<feBlend mode="normal" in="SourceGraphic" in2="effect1_dropShadow_28_3103" result="shape"/>
</filter>
<clipPath id="clip0_28_3103">
<rect width="160" height="55" fill="white"/>
</clipPath>
</defs>
</svg>
