<?xml version="1.0" encoding="utf-8"?>
<!-- Generator: Adobe Illustrator 27.0.0, SVG Export Plug-In . SVG Version: 6.00 Build 0)  -->
<svg version="1.1" id="Layer_1" xmlns="http://www.w3.org/2000/svg" xmlns:xlink="http://www.w3.org/1999/xlink" x="0px" y="0px"
	 viewBox="0 0 34 34" style="enable-background:new 0 0 34 34;" xml:space="preserve">
<style type="text/css">
	.st0{fill:#808080;}
</style>
<g>
	<g>
		<path class="st0" d="M17,33.66C7.81,33.66,0.34,26.19,0.34,17C0.34,7.81,7.81,0.34,17,0.34S33.66,7.81,33.66,17
			C33.66,26.19,26.19,33.66,17,33.66z M17,1.52C8.46,1.52,1.52,8.46,1.52,17c0,8.54,6.94,15.48,15.48,15.48
			c8.54,0,15.48-6.94,15.48-15.48C32.48,8.46,25.54,1.52,17,1.52z"/>
	</g>
	<g>
		<path class="st0" d="M16.93,23.07c-3.52,0-6.85-1.02-9.62-2.95c-0.27-0.19-0.33-0.55-0.15-0.82c0.19-0.27,0.55-0.33,0.82-0.15
			c2.57,1.79,5.67,2.74,8.95,2.74s6.37-0.95,8.95-2.74c0.27-0.19,0.63-0.12,0.82,0.15c0.19,0.27,0.12,0.63-0.15,0.82
			C23.77,22.05,20.45,23.07,16.93,23.07z"/>
	</g>
	<g>
		<path class="st0" d="M12.06,15.16c-1.46,0-2.65-1.19-2.65-2.65c0-1.46,1.19-2.65,2.65-2.65c1.46,0,2.65,1.19,2.65,2.65
			C14.72,13.97,13.53,15.16,12.06,15.16z M12.06,11.03c-0.81,0-1.47,0.66-1.47,1.47c0,0.81,0.66,1.47,1.47,1.47s1.47-0.66,1.47-1.47
			C13.54,11.69,12.88,11.03,12.06,11.03z"/>
	</g>
	<g>
		<path class="st0" d="M21.2,15.16c-1.46,0-2.65-1.19-2.65-2.65c0-1.46,1.19-2.65,2.65-2.65c1.46,0,2.65,1.19,2.65,2.65
			C23.85,13.97,22.66,15.16,21.2,15.16z M21.2,11.03c-0.81,0-1.47,0.66-1.47,1.47c0,0.81,0.66,1.47,1.47,1.47s1.47-0.66,1.47-1.47
			C22.67,11.69,22.01,11.03,21.2,11.03z"/>
	</g>
</g>
</svg>
