<svg width="160" height="55" viewBox="0 0 160 55" fill="none" xmlns="http://www.w3.org/2000/svg">
<g clip-path="url(#clip0_263_2577)">
<rect width="160" height="55" fill="white"/>
<g filter="url(#filter0_d_263_2577)">
<rect x="3" y="4" width="154" height="48" rx="8" fill="white"/>
</g>
<path d="M129.69 27.6943H30.3701V28.3164H129.69V27.6943Z" fill="black"/>
<path d="M30.3711 34.3002C33.8664 34.3002 36.6804 31.4862 36.6804 27.9909C36.6804 24.4956 33.8664 21.6816 30.3711 21.6816C26.8758 21.6816 24.0322 24.4956 24.0322 27.9909C24.0322 31.4862 26.8758 34.3002 30.3711 34.3002Z" fill="white"/>
<path d="M30.3715 34.3591C26.8466 34.3591 24.0029 31.5155 24.0029 27.9906C24.0029 24.4657 26.8466 21.6221 30.3715 21.6221C33.8964 21.6221 36.74 24.4657 36.74 27.9906C36.74 31.5155 33.8667 34.3591 30.3715 34.3591ZM30.3715 21.7109C26.9058 21.7109 24.0918 24.5249 24.0918 27.9906C24.0918 31.4563 26.9058 34.2703 30.3715 34.2703C33.8371 34.2703 36.6511 31.4563 36.6511 27.9906C36.6215 24.5249 33.8075 21.7109 30.3715 21.7109Z" fill="black"/>
<path d="M30.3705 34.6257C26.7271 34.6257 23.7354 31.6636 23.7354 27.9906C23.7354 24.3472 26.6975 21.3555 30.3705 21.3555C34.0435 21.3555 37.0056 24.3176 37.0056 27.9906C36.976 31.634 34.0139 34.6257 30.3705 34.6257ZM30.3705 21.9775C27.0529 21.9775 24.3574 24.673 24.3574 27.9906C24.3574 31.3081 27.0529 34.0037 30.3705 34.0037C33.688 34.0037 36.3836 31.3081 36.3836 27.9906C36.3836 24.673 33.688 21.9775 30.3705 21.9775Z" fill="black"/>
<path d="M55.1931 34.3002C58.6884 34.3002 61.5024 31.4862 61.5024 27.9909C61.5024 24.4956 58.6884 21.6816 55.1931 21.6816C51.6978 21.6816 48.8838 24.4956 48.8838 27.9909C48.8838 31.4862 51.6978 34.3002 55.1931 34.3002Z" fill="white"/>
<path d="M55.1928 34.3591C51.6678 34.3591 48.8242 31.5155 48.8242 27.9906C48.8242 24.4657 51.6678 21.6221 55.1928 21.6221C58.7177 21.6221 61.5613 24.4657 61.5613 27.9906C61.5613 31.5155 58.688 34.3591 55.1928 34.3591ZM55.1928 21.7109C51.7271 21.7109 48.9131 24.5249 48.9131 27.9906C48.9131 31.4563 51.7271 34.2703 55.1928 34.2703C58.6584 34.2703 61.4724 31.4563 61.4724 27.9906C61.4428 24.5249 58.6288 21.7109 55.1928 21.7109Z" fill="black"/>
<path d="M55.1927 34.6257C51.5493 34.6257 48.5576 31.6636 48.5576 27.9906C48.5576 24.3472 51.5197 21.3555 55.1927 21.3555C58.8361 21.3555 61.8279 24.3176 61.8279 27.9906C61.8279 31.634 58.8361 34.6257 55.1927 34.6257ZM55.1927 21.9775C51.8752 21.9775 49.1797 24.673 49.1797 27.9906C49.1797 31.3081 51.8752 34.0037 55.1927 34.0037C58.5103 34.0037 61.2058 31.3081 61.2058 27.9906C61.2058 24.673 58.5103 21.9775 55.1927 21.9775Z" fill="black"/>
<path d="M80.0153 34.3002C83.5106 34.3002 86.3246 31.4862 86.3246 27.9909C86.3246 24.4956 83.5106 21.6816 80.0153 21.6816C76.5201 21.6816 73.7061 24.4956 73.7061 27.9909C73.7061 31.4862 76.5201 34.3002 80.0153 34.3002Z" fill="white"/>
<path d="M80.015 34.3591C76.4901 34.3591 73.6465 31.5155 73.6465 27.9906C73.6465 24.4657 76.4901 21.6221 80.015 21.6221C83.5399 21.6221 86.3835 24.4657 86.3835 27.9906C86.3835 31.5155 83.5399 34.3591 80.015 34.3591ZM80.015 21.7109C76.5494 21.7109 73.7353 24.5249 73.7353 27.9906C73.7353 31.4563 76.5494 34.2703 80.015 34.2703C83.4807 34.2703 86.2947 31.4563 86.2947 27.9906C86.2947 24.5249 83.4807 21.7109 80.015 21.7109Z" fill="black"/>
<path d="M80.015 34.6257C76.3716 34.6257 73.3799 31.6636 73.3799 27.9906C73.3799 24.3472 76.342 21.3555 80.015 21.3555C83.688 21.3555 86.6501 24.3176 86.6501 27.9906C86.6501 31.634 83.6584 34.6257 80.015 34.6257ZM80.015 21.9775C76.6974 21.9775 74.0019 24.673 74.0019 27.9906C74.0019 31.3081 76.6974 34.0037 80.015 34.0037C83.3326 34.0037 86.0281 31.3081 86.0281 27.9906C86.0281 24.673 83.3326 21.9775 80.015 21.9775Z" fill="black"/>
<path d="M104.839 34.3002C108.334 34.3002 111.148 31.4862 111.148 27.9909C111.148 24.4956 108.334 21.6816 104.839 21.6816C101.343 21.6816 98.5293 24.4956 98.5293 27.9909C98.5293 31.4862 101.343 34.3002 104.839 34.3002Z" fill="white"/>
<path d="M104.838 34.3591C101.313 34.3591 98.4697 31.5155 98.4697 27.9906C98.4697 24.4657 101.313 21.6221 104.838 21.6221C108.363 21.6221 111.207 24.4657 111.207 27.9906C111.207 31.5155 108.363 34.3591 104.838 34.3591ZM104.838 21.7109C101.373 21.7109 98.5586 24.5249 98.5586 27.9906C98.5586 31.4563 101.373 34.2703 104.838 34.2703C108.304 34.2703 111.118 31.4563 111.118 27.9906C111.118 24.5249 108.304 21.7109 104.838 21.7109Z" fill="black"/>
<path d="M104.838 34.6257C101.195 34.6257 98.2031 31.6636 98.2031 27.9906C98.2031 24.3472 101.165 21.3555 104.838 21.3555C108.511 21.3555 111.473 24.3176 111.473 27.9906C111.473 31.634 108.482 34.6257 104.838 34.6257ZM104.838 21.9775C101.521 21.9775 98.8252 24.673 98.8252 27.9906C98.8252 31.3081 101.521 34.0037 104.838 34.0037C108.156 34.0037 110.851 31.3081 110.851 27.9906C110.851 24.673 108.156 21.9775 104.838 21.9775Z" fill="black"/>
<path d="M129.661 34.3002C133.156 34.3002 135.97 31.4862 135.97 27.9909C135.97 24.4956 133.156 21.6816 129.661 21.6816C126.166 21.6816 123.352 24.4956 123.352 27.9909C123.352 31.4862 126.195 34.3002 129.661 34.3002Z" fill="white"/>
<path d="M129.661 34.3591C126.136 34.3591 123.292 31.5155 123.292 27.9906C123.292 24.4657 126.136 21.6221 129.661 21.6221C133.185 21.6221 136.029 24.4657 136.029 27.9906C136.029 31.5155 133.185 34.3591 129.661 34.3591ZM129.661 21.7109C126.195 21.7109 123.381 24.5249 123.381 27.9906C123.381 31.4563 126.195 34.2703 129.661 34.2703C133.126 34.2703 135.94 31.4563 135.94 27.9906C135.94 24.5249 133.126 21.7109 129.661 21.7109Z" fill="black"/>
<path d="M129.661 34.6257C126.017 34.6257 123.025 31.6636 123.025 27.9906C123.025 24.3472 125.987 21.3555 129.661 21.3555C133.334 21.3555 136.296 24.3176 136.296 27.9906C136.296 31.634 133.334 34.6257 129.661 34.6257ZM129.661 21.9775C126.343 21.9775 123.647 24.673 123.647 27.9906C123.647 31.3081 126.343 34.0037 129.661 34.0037C132.978 34.0037 135.674 31.3081 135.674 27.9906C135.674 24.673 132.978 21.9775 129.661 21.9775Z" fill="black"/>
<path d="M31.1096 31.0121H29.9247V26.4208L28.5029 26.8652V25.8877L30.9911 24.999H31.1096V31.0121Z" fill="black"/>
<path d="M57.2658 31.0114H53.1484V30.1821L55.1034 28.1086C55.37 27.8124 55.5774 27.5754 55.6958 27.3384C55.8143 27.1311 55.8736 26.9237 55.8736 26.7164C55.8736 26.4498 55.8143 26.2425 55.6662 26.0943C55.5181 25.9462 55.3404 25.8574 55.1034 25.8574C54.8368 25.8574 54.6295 25.9462 54.4814 26.124C54.3333 26.3017 54.2444 26.5387 54.2444 26.8645H53.0596C53.0596 26.509 53.1484 26.1536 53.3262 25.8574C53.5039 25.5612 53.7409 25.3242 54.0667 25.1465C54.3925 24.9687 54.748 24.8799 55.1627 24.8799C55.7847 24.8799 56.2586 25.028 56.6141 25.3242C56.9696 25.6204 57.1177 26.0351 57.1177 26.5683C57.1177 26.8645 57.0288 27.1607 56.8807 27.4865C56.7326 27.7827 56.466 28.1382 56.0809 28.5529L54.7184 30.0043H57.2954V31.0114H57.2658Z" fill="black"/>
<path d="M79.2744 27.4872H79.8964C80.1926 27.4872 80.4296 27.3983 80.5777 27.2502C80.7258 27.1021 80.785 26.8948 80.785 26.6578C80.785 26.4208 80.7258 26.2135 80.5777 26.095C80.4296 25.9469 80.2222 25.8876 79.9853 25.8876C79.7483 25.8876 79.5706 25.9469 79.4225 26.0654C79.2744 26.1839 79.1855 26.3616 79.1855 26.5393H78.0007C78.0007 26.2135 78.0895 25.9469 78.2672 25.7099C78.445 25.473 78.6819 25.2656 78.9781 25.1175C79.2744 24.9694 79.6298 24.9102 79.9853 24.9102C80.6073 24.9102 81.1109 25.0583 81.4663 25.3545C81.8218 25.6507 81.9995 26.0654 81.9995 26.5986C81.9995 26.8651 81.9106 27.1317 81.7625 27.3687C81.5848 27.6057 81.3775 27.7834 81.1109 27.9019C81.4367 28.0204 81.7033 28.1981 81.881 28.4351C82.0587 28.672 82.118 28.9682 82.118 29.2941C82.118 29.8272 81.9106 30.2419 81.5256 30.5678C81.1405 30.8936 80.6369 31.0417 79.9853 31.0417C79.3928 31.0417 78.8893 30.8936 78.5042 30.5678C78.1191 30.2419 77.9414 29.8273 77.9414 29.3237H79.1262C79.1262 29.5607 79.2151 29.7384 79.3928 29.8865C79.5706 30.0346 79.7779 30.0938 80.0149 30.0938C80.3111 30.0938 80.5184 30.005 80.6665 29.8569C80.8147 29.7088 80.9035 29.5014 80.9035 29.2645C80.9035 28.672 80.5777 28.3758 79.926 28.3758H79.304V27.4872H79.2744Z" fill="black"/>
<path d="M106.526 28.7616H107.207V29.7094H106.526V31.0128H105.341V29.7094H102.882L102.823 28.9689L105.311 25.0293H106.526V28.7616ZM104.008 28.7616H105.341V26.6288L105.252 26.7769L104.008 28.7616Z" fill="black"/>
<path d="M128.12 28.0803L128.476 25.0293H131.852V26.0364H129.453L129.305 27.3397C129.601 27.1916 129.897 27.1028 130.194 27.1028C130.756 27.1028 131.201 27.2805 131.527 27.636C131.852 27.9914 132 28.495 132 29.117C132 29.5021 131.912 29.8575 131.764 30.1537C131.586 30.45 131.378 30.6869 131.053 30.8646C130.756 31.0424 130.401 31.1312 129.986 31.1312C129.631 31.1312 129.275 31.072 128.979 30.9239C128.683 30.7758 128.416 30.5684 128.239 30.3018C128.061 30.0353 127.972 29.739 127.942 29.3836H129.127C129.157 29.6206 129.246 29.8279 129.394 29.976C129.542 30.1241 129.749 30.1834 129.986 30.1834C130.253 30.1834 130.46 30.0945 130.608 29.8871C130.756 29.6798 130.816 29.4132 130.816 29.0578C130.816 28.7023 130.727 28.4653 130.579 28.2876C130.401 28.1099 130.164 28.021 129.868 28.021C129.572 28.021 129.364 28.1099 129.186 28.258L129.068 28.3765L128.12 28.0803Z" fill="black"/>
</g>
<defs>
<filter id="filter0_d_263_2577" x="-3" y="-2" width="166" height="60" filterUnits="userSpaceOnUse" color-interpolation-filters="sRGB">
<feFlood flood-opacity="0" result="BackgroundImageFix"/>
<feColorMatrix in="SourceAlpha" type="matrix" values="0 0 0 0 0 0 0 0 0 0 0 0 0 0 0 0 0 0 127 0" result="hardAlpha"/>
<feOffset/>
<feGaussianBlur stdDeviation="3"/>
<feComposite in2="hardAlpha" operator="out"/>
<feColorMatrix type="matrix" values="0 0 0 0 0 0 0 0 0 0 0 0 0 0 0 0 0 0 0.25 0"/>
<feBlend mode="normal" in2="BackgroundImageFix" result="effect1_dropShadow_263_2577"/>
<feBlend mode="normal" in="SourceGraphic" in2="effect1_dropShadow_263_2577" result="shape"/>
</filter>
<clipPath id="clip0_263_2577">
<rect width="160" height="55" fill="white"/>
</clipPath>
</defs>
</svg>
