<svg width="34" height="34" viewBox="0 0 34 34" fill="none" xmlns="http://www.w3.org/2000/svg">
<path d="M17 33C25.9032 33 33 25.7742 33 17C33 8.22581 25.9032 1 17 1C8.09677 1 1 8.09677 1 17C1 25.9032 8.09677 33 17 33Z" stroke="white" stroke-width="0.913" stroke-linecap="round"/>
<path d="M7.70967 19.5806C10.2903 21.3871 13.5161 22.4194 17 22.4194C20.4839 22.4194 23.7097 21.3871 26.2903 19.5806" stroke="white" stroke-width="0.913" stroke-linecap="round"/>
<path d="M12.0968 14.5484C13.2581 14.5484 14.1613 13.6452 14.1613 12.4839C14.1613 11.3226 13.2581 10.4194 12.0968 10.4194C10.9355 10.4194 10.0323 11.3226 10.0323 12.4839C10.0323 13.6452 10.9355 14.5484 12.0968 14.5484Z" stroke="white" stroke-width="0.913" stroke-linecap="round"/>
<path d="M21.129 14.5484C22.2903 14.5484 23.1936 13.6452 23.1936 12.4839C23.1936 11.3226 22.2903 10.4194 21.129 10.4194C19.9677 10.4194 19.0645 11.3226 19.0645 12.4839C19.0645 13.6452 20.0968 14.5484 21.129 14.5484Z" stroke="white" stroke-width="0.913" stroke-linecap="round"/>
</svg>
