<svg width="32" height="32" viewBox="0 0 32 32" fill="none" xmlns="http://www.w3.org/2000/svg">
<g clip-path="url(#clip0_24_3069)">
<path d="M24.1324 29.18C31.4052 24.6857 33.6576 15.1466 29.1633 7.87379C24.6689 0.600996 15.1298 -1.65141 7.85703 2.8429C0.584235 7.3372 -1.66817 16.8763 2.82613 24.1491C7.32044 31.4219 16.8596 33.6743 24.1324 29.18Z" stroke="white" stroke-width="0.871" stroke-linecap="round"/>
<path d="M24.8455 21.3333C22.374 19.6423 19.252 18.6016 15.8699 18.6016C12.4878 18.6016 9.36585 19.6423 6.89431 21.3333" stroke="white" stroke-width="0.871" stroke-linecap="round"/>
<path d="M11.3171 13.6585C12.3577 13.6585 13.2683 12.748 13.2683 11.7073C13.2683 10.6667 12.3577 9.7561 11.3171 9.7561C10.1463 9.7561 9.23577 10.5366 9.23577 11.7073C9.23577 12.748 10.1463 13.6585 11.3171 13.6585Z" stroke="white" stroke-width="0.871" stroke-linecap="round"/>
<path d="M20.0325 13.6585C21.0732 13.6585 21.9837 12.748 21.9837 11.7073C21.9837 10.6667 21.0732 9.7561 20.0325 9.7561C18.9919 9.7561 18.0813 10.6667 18.0813 11.7073C18.0813 12.748 18.9919 13.6585 20.0325 13.6585Z" stroke="white" stroke-width="0.871" stroke-linecap="round"/>
</g>
<defs>
<clipPath id="clip0_24_3069">
<rect width="32" height="32" fill="white"/>
</clipPath>
</defs>
</svg>
